<?xml version="1.0" encoding="UTF-8"?>
<svg version="1.1" xmlns="http://www.w3.org/2000/svg" width="500" height="500">
<path d="M0 0 C165 0 330 0 500 0 C500 165 500 330 500 500 C335 500 170 500 0 500 C0 335 0 170 0 0 Z " fill="#FBF7F3" transform="translate(0,0)"/>
<path d="M0 0 C0.64775391 0.12358887 1.29550781 0.24717773 1.96289062 0.37451172 C40.4426894 7.92585187 71.38777093 29.38574724 98.75 56.625 C99.83196655 57.69995728 99.83196655 57.69995728 100.93579102 58.79663086 C113 70.89711479 113 70.89711479 113 74 C114.14025635 73.98428955 115.2805127 73.9685791 116.45532227 73.95239258 C140.19076893 73.65517014 163.42664315 73.93247639 187 77 C188.2173584 77.1551709 189.4347168 77.3103418 190.68896484 77.47021484 C202.73856425 79.03110974 214.74029503 80.8464342 226.6875 83.0625 C227.50621582 83.21259521 228.32493164 83.36269043 229.16845703 83.51733398 C233.92405913 84.44140128 238.40207519 85.74179485 242.97583008 87.33325195 C246.26833397 88.41778074 249.61918619 88.91977554 253.03125 89.47265625 C253.6809375 89.64667969 254.330625 89.82070313 255 90 C255.33 90.66 255.66 91.32 256 92 C238.84843365 92.50088816 222.72329632 91.65782271 205.85644531 88.52587891 C181.06165859 83.96109509 155.97525346 82.82132502 130.8125 82.8125 C130.06177216 82.81150299 129.31104431 82.81050598 128.53756714 82.80947876 C120.27918354 82.81072784 112.09742308 83.02416534 103.86914062 83.81835938 C98.53743344 84.15590108 93.29771696 83.58400029 88 83 C87.33468262 82.9287793 86.66936523 82.85755859 85.98388672 82.78417969 C78.8064096 82.00456003 71.94512253 81.05518932 65 79 C62.75354665 78.52458778 60.50339617 78.06633335 58.25 77.625 C48.70072112 75.60244462 40.01922754 72.02356826 30.99755859 68.36328125 C25.21253652 66.03693574 19.35046826 63.95449384 13.45849609 61.91650391 C8.17347941 60.0867397 8.17347941 60.0867397 6 59 C6 58.34 6 57.68 6 57 C5.443125 56.89042969 4.88625 56.78085937 4.3125 56.66796875 C-1.03341031 55.55724752 -5.93063816 54.02774474 -11 52 C-11 51.34 -11 50.68 -11 50 C-11.61093506 49.83419434 -12.22187012 49.66838867 -12.85131836 49.49755859 C-19.06762407 47.73302967 -24.76188861 45.45596615 -30.5625 42.625 C-31.34818359 42.25117188 -32.13386719 41.87734375 -32.94335938 41.4921875 C-37.76300525 39.17558405 -42.45343045 36.68641566 -47.10058594 34.04101562 C-49.33368091 32.81711884 -51.62012058 31.90049492 -54 31 C-56.00751815 30.01517978 -58.00934459 29.01847486 -60 28 C-60 27.34 -60 26.68 -60 26 C-62.31 25.34 -64.62 24.68 -67 24 C-67 23.34 -67 22.68 -67 22 C-68.65 21.67 -70.3 21.34 -72 21 C-72 20.34 -72 19.68 -72 19 C-72.73089844 18.88269531 -73.46179688 18.76539063 -74.21484375 18.64453125 C-80.27598982 17.24188174 -85.96709549 13.73427921 -90 9 C-63.38037117 -3.17706425 -28.48534879 -5.53881782 0 0 Z " fill="#F0F3ED" transform="translate(202,408)"/>
<path d="M0 0 C0.79277344 0.20625 1.58554688 0.4125 2.40234375 0.625 C13.86121631 3.81103724 23.04361114 8.12324375 32 16 C33.03060547 16.81597656 33.03060547 16.81597656 34.08203125 17.6484375 C45.66208688 27.01297953 55.77744088 42.4187164 58.5 57.25 C59.74945123 69.16440997 60.43389837 82.4160264 57 94 C56.72542969 95.10794922 56.72542969 95.10794922 56.4453125 96.23828125 C53.82796647 105.59286984 48.44296465 112.8301566 40.12890625 117.82421875 C39.42636719 118.21222656 38.72382813 118.60023438 38 119 C36.96875 119.5775 35.9375 120.155 34.875 120.75 C26.99255981 124.17714791 19.91936373 124.38442536 11.375 124.375 C9.45167847 124.37584595 9.45167847 124.37584595 7.48950195 124.37670898 C-2.17902098 124.26638039 -11.23750394 123.13476317 -20.64453125 120.97265625 C-24.77975522 120.02277758 -28.75783586 119.27205183 -33 119 C-35.77069744 121.18731921 -35.77069744 121.18731921 -38 124 C-44.99385431 128.55413769 -50.693871 128.64663943 -59 128 C-63.71179094 126.74304358 -66.31432986 124.78852066 -69.5 121.125 C-71.11347493 117.7635939 -71.35028885 115.67803287 -71 112 C-63.54578387 106.81445834 -57.22600139 107.37049129 -48.5 108.8125 C-43.22324055 109.85881892 -38.11244689 111.33651403 -33 113 C-31.25837153 106.68369407 -29.56086351 100.36352045 -28 94 C-27.34 94 -26.68 94 -26 94 C-26.061875 92.845 -26.12375 91.69 -26.1875 90.5 C-26.2225704 83.21704702 -24.4636936 76.10065645 -23 69 C-23.57443848 69.01571045 -24.14887695 69.0314209 -24.74072266 69.04760742 C-27.36871309 69.11035513 -29.99654537 69.14911506 -32.625 69.1875 C-33.52863281 69.21263672 -34.43226563 69.23777344 -35.36328125 69.26367188 C-40.63742609 69.32141799 -44.50913601 69.11744442 -49 66 C-49.33 65.01 -49.66 64.02 -50 63 C-49.24460938 63.15339844 -48.48921875 63.30679688 -47.7109375 63.46484375 C-42.6909083 64.1887848 -37.68939556 64.36319153 -32.625 64.5625 C-31.60277344 64.60568359 -30.58054687 64.64886719 -29.52734375 64.69335938 C-27.01834712 64.79887792 -24.50926057 64.90099213 -22 65 C-21.81824219 63.7934375 -21.63648438 62.586875 -21.44921875 61.34375 C-21.19575578 59.72909702 -20.94182447 58.11451751 -20.6875 56.5 C-20.56955078 55.70851562 -20.45160156 54.91703125 -20.33007812 54.1015625 C-18.62369565 43.42573367 -14.57851212 31.03877918 -6 24 C-2.90681037 21.76010406 0.17876763 21.58702465 3.96875 21.671875 C8.18438391 22.35286202 11.07494703 25.07494703 14 28 C15.16095521 35.26727809 13.37042935 41.47217792 9.3359375 47.4765625 C2.32888648 56.71693655 -6.54991535 64.24012199 -18 67 C-18.81736749 70.9990211 -19.62800952 74.99937762 -20.4375 79 C-20.66759766 80.12535156 -20.89769531 81.25070313 -21.13476562 82.41015625 C-22.31596799 88.26481144 -23.36670827 94.06016035 -24 100 C-24.66 100 -25.32 100 -26 100 C-25.9175 100.804375 -25.835 101.60875 -25.75 102.4375 C-26.08293982 107.18189247 -27.90164524 110.78455517 -30 115 C-28.7625 115.185625 -28.7625 115.185625 -27.5 115.375 C-24 116 -24 116 -20.4140625 116.96875 C-15.60781462 118.1819026 -10.80468026 118.68669586 -5.875 119.125 C-4.95066162 119.2077417 -4.02632324 119.2904834 -3.07397461 119.37573242 C11.16856729 120.58213908 28.79243813 122.0298885 41 113 C48.90788668 106.16034567 52.87629778 97.13159122 55 87 C55.2262655 82.94053072 55.18515698 78.87764444 55.1875 74.8125 C55.19974609 73.71357422 55.21199219 72.61464844 55.22460938 71.48242188 C55.25754366 53.07215813 47.57140379 36.78449738 35 23.375 C19.99602599 8.90984274 -0.50679242 1.28764164 -21.25366211 1.52587891 C-36.94294446 2.13421456 -52.39785018 7.07226779 -64.94140625 16.546875 C-67 18 -67 18 -70 19 C-70 19.66 -70 20.32 -70 21 C-71.48233437 22.21880826 -72.96723194 23.43482925 -74.47265625 24.625 C-76.50731723 26.45671525 -77.65128019 28.63974034 -79 31 C-79.66 31 -80.32 31 -81 31 C-81.2475 31.680625 -81.495 32.36125 -81.75 33.0625 C-83 36 -83 36 -84.875 39.1875 C-94.22865664 55.42600427 -96.3522093 74.40073816 -91.96484375 92.49609375 C-88.05880862 106.6811687 -82.68774704 117.69875954 -72 128 C-71.31421875 128.70640625 -70.6284375 129.4128125 -69.921875 130.140625 C-52.78968955 146.77979792 -30.60808886 151.82524385 -7.36621094 151.58789062 C13.04321741 150.93113782 38.96121626 143.79314117 54 129 C55.13298909 125.70527706 55.13298909 125.70527706 56 122 C57.162925 119.20488159 58.51037684 116.51384511 59.875 113.8125 C60.38353516 112.76545898 60.38353516 112.76545898 60.90234375 111.69726562 C62.81006353 107.88545291 64.59115041 104.6940908 68 102 C71.14522722 101.68547728 73.15916359 101.57958179 76 103 C76.54591265 108.4260409 74.85012658 111.64814586 71.875 116 C71.46628662 116.61504395 71.05757324 117.23008789 70.63647461 117.86376953 C67.79645742 122.05205516 64.9155367 125.75296956 61 129 C60.34 129 59.68 129 59 129 C58.97312721 130.81242052 58.95366285 132.62495233 58.9375 134.4375 C58.92009766 135.95150391 58.92009766 135.95150391 58.90234375 137.49609375 C58.71387324 139.94021067 58.71387324 139.94021067 60 141 C66.98703203 141 70.20119497 137.76319237 75 133 C75.74636719 132.27941406 76.49273437 131.55882812 77.26171875 130.81640625 C80.867394 127.28419128 84.28474537 123.70347789 87.5 119.8125 C91.5724776 115.13008912 96.1392839 110.90040191 102.328125 109.45703125 C107.42356872 109.13639959 110.64314398 110.45636229 114.5859375 113.625 C116 115 116 115 117.5 117.25 C119.00979764 119.34043785 119.00979764 119.34043785 122.375 119.9375 C126.60692826 120.01046428 127.6197158 119.44214365 131 117 C133.17119642 114.86470581 135.18086776 112.60189624 137.1875 110.3125 C139.08420247 108.15434156 141.00216399 106.06866032 143 104 C143.66 104 144.32 104 145 104 C145 103.34 145 102.68 145 102 C146.3894043 100.81079102 146.3894043 100.81079102 148.32421875 99.50390625 C149.02353516 99.02759766 149.72285156 98.55128906 150.44335938 98.06054688 C151.18392578 97.56619141 151.92449219 97.07183594 152.6875 96.5625 C153.40873047 96.07201172 154.12996094 95.58152344 154.87304688 95.07617188 C156.90503227 93.7011023 158.94960189 92.34740447 161 91 C162.37091797 90.08541016 162.37091797 90.08541016 163.76953125 89.15234375 C166 88 166 88 170 88 C170 88.66 170 89.32 170 90 C167.48672578 91.69782932 164.96182209 93.29638514 162.375 94.875 C151.17668921 101.91930709 141.00991944 109.92892305 132.6484375 120.2578125 C129.94801795 123.11181042 127.58806197 123.89822004 123.75 124.5625 C119.06046034 123.85906905 117.22117951 122.05601349 113.89453125 118.82421875 C110.5126571 115.56785746 108.85161683 114.09462409 104.0625 113.5625 C99.9605422 113.69235714 97.9913243 115.18463596 95 118 C94.34 118 93.68 118 93 118 C93 118.66 93 119.32 93 120 C92.278125 120.556875 91.55625 121.11375 90.8125 121.6875 C88.36988959 123.69586856 87.04732947 125.19422444 85.3125 127.75 C84.549375 128.8225 83.78625 129.895 83 131 C82.34 131 81.68 131 81 131 C81 131.66 81 132.32 81 133 C80.34 133 79.68 133 79 133 C78.7628125 133.58394531 78.525625 134.16789063 78.28125 134.76953125 C76.72773553 137.4739726 74.98987769 138.82413374 72.5 140.6875 C71.7059375 141.28949219 70.911875 141.89148438 70.09375 142.51171875 C66.27367799 145.22710576 63.70380558 145.40550048 59 145 C55.81249593 142.81907617 55.12131932 141.52571704 54.25 137.75 C54.1675 136.8425 54.085 135.935 54 135 C48.7146281 137.53744624 43.68132732 140.19974127 38.75 143.375 C33.0708198 146.74125857 27.21885791 148.81465286 20.9375 150.8125 C20.02774414 151.10237793 19.11798828 151.39225586 18.18066406 151.69091797 C-5.00073311 158.76370312 -31.04921174 158.16026694 -53 147.0625 C-58.36571634 144.17975835 -63.40495407 141.00370035 -68 137 C-68.79664063 136.33355469 -69.59328125 135.66710937 -70.4140625 134.98046875 C-78.84752794 127.70628633 -85.21410545 120.04243669 -90.25 110.125 C-90.56727051 109.50165771 -90.88454102 108.87831543 -91.21142578 108.23608398 C-96.22249049 97.90454832 -98.64933179 88.50724954 -98.4375 77 C-98.44458984 75.91460937 -98.45167969 74.82921875 -98.45898438 73.7109375 C-98.31190861 54.74947719 -91.31542409 38.10163064 -79 24 C-78.28972656 23.17757812 -77.57945312 22.35515625 -76.84765625 21.5078125 C-69.52695446 13.62817445 -59.67713095 6.46876299 -49.20703125 3.61328125 C-46.55829938 2.87726195 -44.05948295 1.87684464 -41.5 0.875 C-28.87609941 -3.68073272 -12.90918713 -3.59212164 0 0 Z " fill="#824C30" transform="translate(217,99)"/>
<path d="M0 0 C0 21.45 0 42.9 0 65 C-6.67883212 65 -6.67883212 65 -10.3125 63.125 C-13.30650752 61.69524932 -15.9909302 60.67843429 -19.25 60.0625 C-24.36966209 59.063761 -29.05623296 57.15330353 -33.88671875 55.21875 C-35.88684132 54.43576601 -37.90777045 53.70302079 -39.94921875 53.03515625 C-44.67792638 51.43066519 -49.18961291 49.34886916 -53.7578125 47.33984375 C-56.20958251 46.32664241 -58.41454396 45.5209501 -61 45 C-61 44.34 -61 43.68 -61 43 C-61.66644531 42.91234375 -62.33289063 42.8246875 -63.01953125 42.734375 C-66.89845757 41.77862382 -70.15420033 40.0818337 -73.6875 38.25 C-74.74227539 37.71246094 -74.74227539 37.71246094 -75.81835938 37.1640625 C-77.22559125 36.44690308 -78.63170407 35.72754307 -80.03662109 35.00585938 C-82.68134258 33.65094113 -85.33986841 32.32435736 -88 31 C-89.33333333 30.33333333 -90.66666667 29.66666667 -92 29 C-92 28.34 -92 27.68 -92 27 C-92.99 27 -93.98 27 -95 27 C-95 26.34 -95 25.68 -95 25 C-96.32 24.67 -97.64 24.34 -99 24 C-99 23.34 -99 22.68 -99 22 C-99.763125 21.87625 -100.52625 21.7525 -101.3125 21.625 C-104 21 -104 21 -107 19 C-107 18.34 -107 17.68 -107 17 C-101.48125572 16.31294985 -96.06358166 15.8962523 -90.50610352 15.76074219 C-61.80344711 14.99798225 -33.06806731 9.82317908 -5.7265625 1.13671875 C-2 0 -2 0 0 0 Z " fill="#FCF5F1" transform="translate(500,100)"/>
<path d="M0 0 C0 0.66 0 1.32 0 2 C0.680625 2.268125 1.36125 2.53625 2.0625 2.8125 C5.39710809 4.16053306 8.69743237 5.57536298 12 7 C12 7.66 12 8.32 12 9 C12.763125 9.144375 13.52625 9.28875 14.3125 9.4375 C17 10 17 10 20 11 C20 11.66 20 12.32 20 13 C22.31 13.66 24.62 14.32 27 15 C27 15.66 27 16.32 27 17 C27.763125 17.144375 28.52625 17.28875 29.3125 17.4375 C32 18 32 18 35 19 C35 19.66 35 20.32 35 21 C35.6290625 21.15855469 36.258125 21.31710937 36.90625 21.48046875 C42.24064143 22.93457244 46.46631723 24.70403266 51.0390625 27.79296875 C54.18698575 29.73063465 57.50785302 30.81516442 61 32 C61 32.66 61 33.32 61 34 C62.65 34 64.3 34 66 34 C66 34.66 66 35.32 66 36 C66.70648682 36.12004395 67.41297363 36.24008789 68.14086914 36.36376953 C71.17262709 37.03841399 73.86450245 38.02289427 76.74609375 39.1796875 C77.83083984 39.61410156 78.91558594 40.04851562 80.03320312 40.49609375 C81.15662109 40.95113281 82.28003906 41.40617187 83.4375 41.875 C85.11682617 42.54595703 85.11682617 42.54595703 86.83007812 43.23046875 C92.00102428 45.31112246 97.02411342 47.48339377 102 50 C103.25752613 50.47439608 104.52854645 50.91515016 105.8125 51.3125 C111.12184741 53.01617854 116.36806568 54.88462028 121.62036133 56.75512695 C123.74488936 57.50927879 125.87218812 58.2551693 128 59 C128.72058594 59.25765137 129.44117188 59.51530273 130.18359375 59.78076172 C135.71753456 61.70767213 141.24398252 63.0430824 147 64.125 C147.9077417 64.29749268 148.8154834 64.46998535 149.75073242 64.64770508 C156.91939049 65.943291 163.96415169 66.57089085 171.23828125 66.82421875 C173.92031493 66.94954743 176.40933305 67.16984183 179.05078125 67.546875 C182.83889476 67.98151513 186.08691149 67.89820587 189.875 67.5625 C228.4074539 64.8375333 266.80059537 69.03492544 304.6875 76.0625 C305.50621582 76.21259521 306.32493164 76.36269043 307.16845703 76.51733398 C311.92405913 77.44140128 316.40207519 78.74179485 320.97583008 80.33325195 C324.26833397 81.41778074 327.61918619 81.91977554 331.03125 82.47265625 C331.6809375 82.64667969 332.330625 82.82070313 333 83 C333.33 83.66 333.66 84.32 334 85 C316.84843365 85.50088816 300.72329632 84.65782271 283.85644531 81.52587891 C259.06165859 76.96109509 233.97525346 75.82132502 208.8125 75.8125 C208.06177216 75.81150299 207.31104431 75.81050598 206.53756714 75.80947876 C198.27918354 75.81072784 190.09742308 76.02416534 181.86914062 76.81835938 C176.53743344 77.15590108 171.29771696 76.58400029 166 76 C165.33468262 75.9287793 164.66936523 75.85755859 163.98388672 75.78417969 C156.8064096 75.00456003 149.94512253 74.05518932 143 72 C140.75354665 71.52458778 138.50339617 71.06633335 136.25 70.625 C126.70072112 68.60244462 118.01922754 65.02356826 108.99755859 61.36328125 C103.21253652 59.03693574 97.35046826 56.95449384 91.45849609 54.91650391 C86.17347941 53.0867397 86.17347941 53.0867397 84 52 C84 51.34 84 50.68 84 50 C83.443125 49.89042969 82.88625 49.78085937 82.3125 49.66796875 C76.96658969 48.55724752 72.06936184 47.02774474 67 45 C67 44.34 67 43.68 67 43 C66.38906494 42.83419434 65.77812988 42.66838867 65.14868164 42.49755859 C58.93237593 40.73302967 53.23811139 38.45596615 47.4375 35.625 C46.65181641 35.25117188 45.86613281 34.87734375 45.05664062 34.4921875 C40.23699475 32.17558405 35.54656955 29.68641566 30.89941406 27.04101562 C28.66631909 25.81711884 26.37987942 24.90049492 24 24 C21.99248185 23.01517978 19.99065541 22.01847486 18 21 C18 20.34 18 19.68 18 19 C15.69 18.34 13.38 17.68 11 17 C11 16.34 11 15.68 11 15 C8.525 14.505 8.525 14.505 6 14 C6 13.34 6 12.68 6 12 C5.26910156 11.88269531 4.53820312 11.76539063 3.78515625 11.64453125 C-2.27598982 10.24188174 -7.96709549 6.73427921 -12 2 C-4.71428571 -1.57142857 -4.71428571 -1.57142857 0 0 Z " fill="#EBDFDD" transform="translate(124,415)"/>
<path d="M0 0 C1.65 0 3.3 0 5 0 C8.82716049 6.50617284 8.82716049 6.50617284 9.875 9.5 C11.53953248 13.19896106 14.05832028 16.21550927 17 19 C17.99 19.33 18.98 19.66 20 20 C20.61875 20.639375 21.2375 21.27875 21.875 21.9375 C24.15239462 24.14791243 26.01708098 25.00569366 29 26 C29 26.66 29 27.32 29 28 C30.11375 28.103125 31.2275 28.20625 32.375 28.3125 C36.6507041 28.83745299 40.60613779 29.976477 44.703125 31.28125 C48.38472927 32.43331664 51.73492204 33.13690017 55.59765625 33.31640625 C56.92506836 33.37924805 56.92506836 33.37924805 58.27929688 33.44335938 C59.19775391 33.48267578 60.11621094 33.52199219 61.0625 33.5625 C62.39958008 33.62727539 62.39958008 33.62727539 63.76367188 33.69335938 C68.20891588 33.89527024 72.63230276 34.01236649 77.08203125 33.96875 C84.1655155 33.93920143 91.22070569 34.3808437 98.2890625 34.79956055 C100.62738197 34.93764066 102.96598545 35.06974837 105.3046875 35.20117188 C112.56100441 35.61734725 119.7861379 36.08382301 127 37 C127 37.66 127 38.32 127 39 C127.98871094 38.97421875 128.97742188 38.9484375 129.99609375 38.921875 C134.09190652 38.92598829 138.0410573 39.51460266 142.0625 40.25 C142.79621826 40.38132324 143.52993652 40.51264648 144.28588867 40.64794922 C151.34055352 41.96579504 158.13432223 43.9149378 165 46 C166.33059976 46.34408308 167.66276294 46.68268951 169 47 C169 47.66 169 48.32 169 49 C170.01320313 49.09796875 171.02640625 49.1959375 172.0703125 49.296875 C176.21644756 50.03872819 179.15166605 51.30812515 182.875 53.25 C183.47997314 53.56283936 184.08494629 53.87567871 184.70825195 54.19799805 C196.48810031 60.3254002 196.48810031 60.3254002 202 64 C202 64.66 202 65.32 202 66 C203.07314453 66.12568359 203.07314453 66.12568359 204.16796875 66.25390625 C207.62579976 67.16486587 209.55556363 68.67885435 212.3125 70.9375 C213.19550781 71.64777344 214.07851563 72.35804687 214.98828125 73.08984375 C215.65214844 73.72019531 216.31601562 74.35054688 217 75 C217 75.66 217 76.32 217 77 C217.556875 77.061875 218.11375 77.12375 218.6875 77.1875 C221.32464561 78.11406467 222.52768432 79.50573316 224.44116211 81.4777832 C227.57721016 84.54015746 231.03931776 87.23657813 234.4375 90 C236.62312584 91.78667754 238.8084744 93.5736703 240.99169922 95.36328125 C242.27770729 96.41134813 243.57044873 97.45123938 244.87158203 98.48046875 C246.28317538 99.6107378 247.64748204 100.7996671 249 102 C249 102.66 249 103.32 249 104 C249.57621094 104.0928125 250.15242187 104.185625 250.74609375 104.28125 C253.52569814 105.16764031 254.94501938 106.50899702 257.0625 108.5 C259.5055145 110.78827462 260.78051271 111.92683757 264 113 C264.721875 113.763125 265.44375 114.52625 266.1875 115.3125 C269.11501294 118.10990126 271.67465389 119.49162343 275.328125 121.10546875 C277 122 277 122 278 124 C278.99 124.33 279.98 124.66 281 125 C281 125.66 281 126.32 281 127 C281.99 127 282.98 127 284 127 C284 127.66 284 128.32 284 129 C285.06154297 129.14695313 285.06154297 129.14695313 286.14453125 129.296875 C289.4570215 130.11253607 291.78322012 131.46633012 294.6875 133.25 C304.35349769 139.25239768 304.35349769 139.25239768 315 143 C315 143.66 315 144.32 315 145 C315.86882812 145.11601562 316.73765625 145.23203125 317.6328125 145.3515625 C321.00124136 146.00023906 323.73936135 147.00263826 326.875 148.375 C330.82804799 150.07262797 334.77130719 151.7102422 338.8125 153.18359375 C340.57135602 153.84002394 342.31895661 154.52657324 344.0625 155.22265625 C349.68591513 157.45509999 355.06890304 159.39439638 361.01171875 160.53515625 C363.04722051 161.01103976 364.78773473 161.69746527 366.6875 162.5625 C369.86061111 163.93951048 372.58292496 164.58328353 376 165 C376 167.31 376 169.62 376 172 C373.32980159 171.34607386 370.66496898 170.67482047 368 170 C366.29263672 169.58041016 366.29263672 169.58041016 364.55078125 169.15234375 C357.56908302 167.38001131 350.96697236 165.31995408 344.359375 162.41796875 C340.12371753 160.63012728 335.82116713 159.0672299 331.5 157.5 C320.70225608 153.5599823 310.208597 149.30756702 300 144 C300 143.34 300 142.68 300 142 C299.30519531 141.89816406 298.61039062 141.79632813 297.89453125 141.69140625 C294.50947448 140.88282994 291.77712981 139.53324287 288.6875 137.9375 C287.61886719 137.38964844 286.55023438 136.84179688 285.44921875 136.27734375 C284.64097656 135.85582031 283.83273437 135.43429688 283 135 C283 134.34 283 133.68 283 133 C281.95199219 132.87818359 281.95199219 132.87818359 280.8828125 132.75390625 C277.25025079 131.80392737 274.92532118 130.12218949 271.875 127.9375 C271.30515381 127.53192871 270.73530762 127.12635742 270.14819336 126.70849609 C268.98092084 125.8754961 267.81642945 125.03858485 266.65478516 124.19775391 C265.17573992 123.12720272 263.68803796 122.06863504 262.19921875 121.01171875 C256.83083523 117.17034209 251.58371672 113.17894469 246.375 109.125 C245.75826416 108.64820801 245.14152832 108.17141602 244.50610352 107.68017578 C240.11818309 104.23636617 240.11818309 104.23636617 239 102 C238.01 101.67 237.02 101.34 236 101 C234.30763104 99.35943825 232.64513308 97.68792556 231 96 C228.95639584 94.16075625 226.85617292 92.39198239 224.75 90.625 C224.18514893 90.14748291 223.62029785 89.66996582 223.03833008 89.17797852 C218.96691727 85.75540563 214.79983496 82.48856822 210.51171875 79.33984375 C210.01285156 78.89769531 209.51398438 78.45554687 209 78 C209 77.34 209 76.68 209 76 C208.01 76 207.02 76 206 76 C205.67 75.34 205.34 74.68 205 74 C204.01 73.67 203.02 73.34 202 73 C202 72.34 202 71.68 202 71 C201.48179687 70.92652344 200.96359375 70.85304688 200.4296875 70.77734375 C196.29378344 69.45412042 192.87351824 66.75262048 189.30859375 64.32617188 C185.63935004 61.88664217 182.29298507 60.20124812 178 59 C178 58.34 178 57.68 178 57 C175.36 56.67 172.72 56.34 170 56 C170 55.34 170 54.68 170 54 C169.16597656 53.81824219 168.33195313 53.63648438 167.47265625 53.44921875 C166.34730469 53.19785156 165.22195313 52.94648437 164.0625 52.6875 C162.96035156 52.44386719 161.85820312 52.20023438 160.72265625 51.94921875 C157.9383845 51.23927328 155.34756075 50.44605297 152.6484375 49.49609375 C148.00644503 47.91432313 143.40703885 47.07300061 138.5625 46.375 C137.73572754 46.24947754 136.90895508 46.12395508 136.05712891 45.99462891 C131.67106016 45.34167826 127.29165681 44.7828875 122.875 44.375 C119 44 119 44 118 43 C115.66474492 42.77914672 113.35286476 42.61952914 111.01171875 42.5 C110.28968262 42.4598024 109.56764648 42.4196048 108.82373047 42.37818909 C106.4452168 42.24742721 104.06638686 42.12376979 101.6875 42 C100.04596689 41.91031112 98.40444677 41.82038435 96.76293945 41.73022461 C87.91400723 41.2535995 79.07269071 40.88952361 70.21386719 40.65698242 C49.63509203 40.10561258 29.6101703 37.14971816 13 24 C13 23.34 13 22.68 13 22 C12.34 22 11.68 22 11 22 C9.40566184 19.96840865 7.94212394 17.94804137 6.5 15.8125 C5.89478516 14.9452832 5.89478516 14.9452832 5.27734375 14.06054688 C1.99768612 9.27094786 0 5.8416586 0 0 Z " fill="#E5D6C1" transform="translate(124,0)"/>
<path d="M0 0 C0.79277344 0.20625 1.58554688 0.4125 2.40234375 0.625 C13.86121631 3.81103724 23.04361114 8.12324375 32 16 C33.03060547 16.81597656 33.03060547 16.81597656 34.08203125 17.6484375 C46.46744909 27.66425863 57.09353932 44.3599784 58.8359375 60.40625 C59.17983164 67.93916935 59.14327126 75.46234003 59 83 C58.34 83 57.68 83 57 83 C56.94392578 81.38544922 56.94392578 81.38544922 56.88671875 79.73828125 C55.93326298 56.90787486 48.95411377 36.82799919 32.171875 20.6484375 C16.93061636 7.32941186 -3.4475194 0.83546419 -23.5078125 1.61328125 C-38.44018966 2.64186959 -52.98811159 7.51811384 -64.94140625 16.546875 C-67 18 -67 18 -70 19 C-70 19.66 -70 20.32 -70 21 C-71.48233437 22.21880826 -72.96723194 23.43482925 -74.47265625 24.625 C-76.50731723 26.45671525 -77.65128019 28.63974034 -79 31 C-79.66 31 -80.32 31 -81 31 C-81.2475 31.680625 -81.495 32.36125 -81.75 33.0625 C-83 36 -83 36 -84.875 39.1875 C-94.22865664 55.42600427 -96.3522093 74.40073816 -91.96484375 92.49609375 C-88.05880862 106.6811687 -82.68774704 117.69875954 -72 128 C-71.31421875 128.70640625 -70.6284375 129.4128125 -69.921875 130.140625 C-52.78968955 146.77979792 -30.60808886 151.82524385 -7.36621094 151.58789062 C13.04321741 150.93113782 38.96121626 143.79314117 54 129 C55.13298909 125.70527706 55.13298909 125.70527706 56 122 C57.162925 119.20488159 58.51037684 116.51384511 59.875 113.8125 C60.38353516 112.76545898 60.38353516 112.76545898 60.90234375 111.69726562 C62.81006353 107.88545291 64.59115041 104.6940908 68 102 C71.14522722 101.68547728 73.15916359 101.57958179 76 103 C76.54591265 108.4260409 74.85012658 111.64814586 71.875 116 C71.46628662 116.61504395 71.05757324 117.23008789 70.63647461 117.86376953 C67.79645742 122.05205516 64.9155367 125.75296956 61 129 C60.34 129 59.68 129 59 129 C58.97312721 130.81242052 58.95366285 132.62495233 58.9375 134.4375 C58.92009766 135.95150391 58.92009766 135.95150391 58.90234375 137.49609375 C58.71387324 139.94021067 58.71387324 139.94021067 60 141 C66.98703203 141 70.20119497 137.76319237 75 133 C75.74636719 132.27941406 76.49273437 131.55882812 77.26171875 130.81640625 C80.867394 127.28419128 84.28474537 123.70347789 87.5 119.8125 C91.5724776 115.13008912 96.1392839 110.90040191 102.328125 109.45703125 C107.42356872 109.13639959 110.64314398 110.45636229 114.5859375 113.625 C116 115 116 115 117.5 117.25 C119.00979764 119.34043785 119.00979764 119.34043785 122.375 119.9375 C126.60692826 120.01046428 127.6197158 119.44214365 131 117 C133.17119642 114.86470581 135.18086776 112.60189624 137.1875 110.3125 C139.08420247 108.15434156 141.00216399 106.06866032 143 104 C143.66 104 144.32 104 145 104 C145 103.34 145 102.68 145 102 C146.3894043 100.81079102 146.3894043 100.81079102 148.32421875 99.50390625 C149.02353516 99.02759766 149.72285156 98.55128906 150.44335938 98.06054688 C151.18392578 97.56619141 151.92449219 97.07183594 152.6875 96.5625 C153.40873047 96.07201172 154.12996094 95.58152344 154.87304688 95.07617188 C156.90503227 93.7011023 158.94960189 92.34740447 161 91 C162.37091797 90.08541016 162.37091797 90.08541016 163.76953125 89.15234375 C166 88 166 88 170 88 C170 88.66 170 89.32 170 90 C167.48672578 91.69782932 164.96182209 93.29638514 162.375 94.875 C151.17668921 101.91930709 141.00991944 109.92892305 132.6484375 120.2578125 C129.94801795 123.11181042 127.58806197 123.89822004 123.75 124.5625 C119.06046034 123.85906905 117.22117951 122.05601349 113.89453125 118.82421875 C110.5126571 115.56785746 108.85161683 114.09462409 104.0625 113.5625 C99.9605422 113.69235714 97.9913243 115.18463596 95 118 C94.34 118 93.68 118 93 118 C93 118.66 93 119.32 93 120 C92.278125 120.556875 91.55625 121.11375 90.8125 121.6875 C88.36988959 123.69586856 87.04732947 125.19422444 85.3125 127.75 C84.549375 128.8225 83.78625 129.895 83 131 C82.34 131 81.68 131 81 131 C81 131.66 81 132.32 81 133 C80.34 133 79.68 133 79 133 C78.7628125 133.58394531 78.525625 134.16789063 78.28125 134.76953125 C76.72773553 137.4739726 74.98987769 138.82413374 72.5 140.6875 C71.7059375 141.28949219 70.911875 141.89148438 70.09375 142.51171875 C66.27367799 145.22710576 63.70380558 145.40550048 59 145 C55.81249593 142.81907617 55.12131932 141.52571704 54.25 137.75 C54.1675 136.8425 54.085 135.935 54 135 C48.7146281 137.53744624 43.68132732 140.19974127 38.75 143.375 C33.0708198 146.74125857 27.21885791 148.81465286 20.9375 150.8125 C20.02774414 151.10237793 19.11798828 151.39225586 18.18066406 151.69091797 C-5.00073311 158.76370312 -31.04921174 158.16026694 -53 147.0625 C-58.36571634 144.17975835 -63.40495407 141.00370035 -68 137 C-68.79664063 136.33355469 -69.59328125 135.66710937 -70.4140625 134.98046875 C-78.84752794 127.70628633 -85.21410545 120.04243669 -90.25 110.125 C-90.56727051 109.50165771 -90.88454102 108.87831543 -91.21142578 108.23608398 C-96.22249049 97.90454832 -98.64933179 88.50724954 -98.4375 77 C-98.44458984 75.91460937 -98.45167969 74.82921875 -98.45898438 73.7109375 C-98.31190861 54.74947719 -91.31542409 38.10163064 -79 24 C-78.28972656 23.17757812 -77.57945312 22.35515625 -76.84765625 21.5078125 C-69.52695446 13.62817445 -59.67713095 6.46876299 -49.20703125 3.61328125 C-46.55829938 2.87726195 -44.05948295 1.87684464 -41.5 0.875 C-28.87609941 -3.68073272 -12.90918713 -3.59212164 0 0 Z " fill="#855336" transform="translate(217,99)"/>
<path d="M0 0 C41.26889881 -4.21939118 41.26889881 -4.21939118 49.5703125 2.34082031 C54.72236212 8.13687614 57.50062248 14.78819463 59.92236328 22.08642578 C61.36451541 25.98552943 63.46143653 28.73742556 66 32 C66 32.66 66 33.32 66 34 C54.89167546 34.29636834 44.67353413 34.5156151 34 31 C32.08382669 30.43582165 30.16718345 29.87323611 28.25 29.3125 C26.8324491 28.87787355 25.41541452 28.44153418 24 28 C24 27.34 24 26.68 24 26 C23.2575 25.896875 22.515 25.79375 21.75 25.6875 C18.8026481 24.95066203 17.21616926 24.05200858 15 22 C15 21.34 15 20.68 15 20 C14.41347656 19.90847656 13.82695312 19.81695313 13.22265625 19.72265625 C8.97896043 18.34289575 6.51598111 14.53333909 4 11 C2.6950058 8.34289989 1.86988889 5.85130248 1 3 C0.67 2.01 0.34 1.02 0 0 Z " fill="#FEFBF6" transform="translate(129,0)"/>
<path d="M0 0 C0.74431274 0.00077042 1.48862549 0.00154083 2.25549316 0.00233459 C3.03404663 -0.00321945 3.8126001 -0.0087735 4.61474609 -0.01449585 C7.17877303 -0.02641559 9.74224609 -0.01992779 12.30627441 -0.00938416 C13.62288559 -0.00714844 13.62288559 -0.00714844 14.96609497 -0.00486755 C31.67244325 0.04605543 48.03727887 1.18354306 64.61877441 3.30311584 C65.84193359 3.45828674 67.06509277 3.61345764 68.32531738 3.77333069 C80.36885598 5.33426494 92.36500033 7.15065015 104.30627441 9.36561584 C105.12499023 9.51571106 105.94370605 9.66580627 106.78723145 9.82044983 C111.54283354 10.74451713 116.02084961 12.0449107 120.59460449 13.6363678 C123.88710839 14.72089658 127.23796061 15.22289139 130.65002441 15.77577209 C131.29971191 15.94979553 131.94939941 16.12381897 132.61877441 16.30311584 C132.94877441 16.96311584 133.27877441 17.62311584 133.61877441 18.30311584 C116.46720806 18.804004 100.34207074 17.96093856 83.47521973 14.82899475 C70.43436392 12.42813976 57.41416623 11.00824962 44.18127441 10.17811584 C43.50816223 10.13551636 42.83505005 10.09291687 42.14154053 10.04902649 C34.45085729 9.57382793 26.77697821 9.25689284 19.07189941 9.17030334 C17.69095497 9.1485635 16.31001412 9.12659455 14.92907715 9.10438538 C12.31941951 9.07091801 9.70927544 9.06292609 7.0994873 9.08387756 C-1.44745667 8.9723523 -1.44745667 8.9723523 -4.31335449 6.91835022 C-5.71325684 5.25624084 -5.71325684 5.25624084 -7.38122559 2.30311584 C-4.8917893 -0.18632044 -3.39933784 0.04682249 0 0 Z " fill="#F6E5E3" transform="translate(324.3812255859375,481.69688415527344)"/>
<path d="M0 0 C5.875 3.625 5.875 3.625 7 7 C8.33041034 7.34481477 9.66431979 7.67619874 11 8 C13.03515625 9.59375 13.03515625 9.59375 15.0625 11.5 C17.5055145 13.78827462 18.78051271 14.92683757 22 16 C22.721875 16.763125 23.44375 17.52625 24.1875 18.3125 C27.11501294 21.10990126 29.67465389 22.49162343 33.328125 24.10546875 C35 25 35 25 36 27 C36.99 27.33 37.98 27.66 39 28 C39 28.66 39 29.32 39 30 C39.99 30 40.98 30 42 30 C42 30.66 42 31.32 42 32 C42.70769531 32.09796875 43.41539062 32.1959375 44.14453125 32.296875 C47.4570215 33.11253607 49.78322012 34.46633012 52.6875 36.25 C62.35349769 42.25239768 62.35349769 42.25239768 73 46 C73 46.66 73 47.32 73 48 C73.86882812 48.11601562 74.73765625 48.23203125 75.6328125 48.3515625 C79.00124136 49.00023906 81.73936135 50.00263826 84.875 51.375 C88.82804799 53.07262797 92.77130719 54.7102422 96.8125 56.18359375 C98.57135602 56.84002394 100.31895661 57.52657324 102.0625 58.22265625 C107.68591513 60.45509999 113.06890304 62.39439638 119.01171875 63.53515625 C121.04722051 64.01103976 122.78773473 64.69746527 124.6875 65.5625 C127.86061111 66.93951048 130.58292496 67.58328353 134 68 C134 70.31 134 72.62 134 75 C131.32980159 74.34607386 128.66496898 73.67482047 126 73 C124.29263672 72.58041016 124.29263672 72.58041016 122.55078125 72.15234375 C115.56908302 70.38001131 108.96697236 68.31995408 102.359375 65.41796875 C98.12371753 63.63012728 93.82116713 62.0672299 89.5 60.5 C78.70225608 56.5599823 68.208597 52.30756702 58 47 C58 46.34 58 45.68 58 45 C57.30519531 44.89816406 56.61039062 44.79632813 55.89453125 44.69140625 C52.50947448 43.88282994 49.77712981 42.53324287 46.6875 40.9375 C45.61886719 40.38964844 44.55023438 39.84179688 43.44921875 39.27734375 C42.64097656 38.85582031 41.83273437 38.43429688 41 38 C41 37.34 41 36.68 41 36 C40.30132812 35.91878906 39.60265625 35.83757812 38.8828125 35.75390625 C35.25025079 34.80392737 32.92532118 33.12218949 29.875 30.9375 C29.30587891 30.53265381 28.73675781 30.12780762 28.15039062 29.71069336 C26.42768229 28.48179928 24.71358635 27.24156845 23 26 C22.06414062 25.33226563 21.12828125 24.66453125 20.1640625 23.9765625 C18.38509025 22.69841528 16.6167743 21.40530692 14.859375 20.09765625 C12.72613634 18.53269838 10.5825747 17.03625426 8.390625 15.55859375 C7.17660028 14.70641692 5.9630513 13.85356191 4.75 13 C4.16412109 12.62109619 3.57824219 12.24219238 2.97460938 11.85180664 C1.359375 10.6875 1.359375 10.6875 -1 8 C-1.18295128 5.07277954 -0.67648877 2.9027518 0 0 Z " fill="#F0E0CE" transform="translate(366,97)"/>
<path d="M0 0 C0 0.66 0 1.32 0 2 C-2.51327422 3.69782932 -5.03817791 5.29638514 -7.625 6.875 C-18.82331079 13.91930709 -28.99008056 21.92892305 -37.3515625 32.2578125 C-40.05198205 35.11181042 -42.41193803 35.89822004 -46.25 36.5625 C-50.93953966 35.85906905 -52.77882049 34.05601349 -56.10546875 30.82421875 C-59.4873429 27.56785746 -61.14838317 26.09462409 -65.9375 25.5625 C-70.0394578 25.69235714 -72.0086757 27.18463596 -75 30 C-75.66 30 -76.32 30 -77 30 C-77 30.66 -77 31.32 -77 32 C-78.0828125 32.8353125 -78.0828125 32.8353125 -79.1875 33.6875 C-81.63011041 35.69586856 -82.95267053 37.19422444 -84.6875 39.75 C-85.450625 40.8225 -86.21375 41.895 -87 43 C-87.66 43 -88.32 43 -89 43 C-89 43.66 -89 44.32 -89 45 C-89.66 45 -90.32 45 -91 45 C-91.2371875 45.58394531 -91.474375 46.16789062 -91.71875 46.76953125 C-93.27226447 49.4739726 -95.01012231 50.82413374 -97.5 52.6875 C-98.2940625 53.28949219 -99.088125 53.89148438 -99.90625 54.51171875 C-103.72632201 57.22710576 -106.29619442 57.40550048 -111 57 C-114.17596753 54.82696958 -114.88194995 53.60205526 -115.625 49.8125 C-115.74875 48.884375 -115.8725 47.95625 -116 47 C-116.66 46.67 -117.32 46.34 -118 46 C-117.01 46 -116.02 46 -115 46 C-115 46.99 -115 47.98 -115 49 C-114.34 49 -113.68 49 -113 49 C-113.33 47.02 -113.66 45.04 -114 43 C-114.99 43.66 -115.98 44.32 -117 45 C-117.66 44.34 -118.32 43.68 -119 43 C-118.38125 42.690625 -117.7625 42.38125 -117.125 42.0625 C-114.465351 39.48107597 -114.46036101 37.35895993 -113.82421875 33.81640625 C-112.73617293 30.09848665 -110.99390423 26.96778176 -109.0625 23.625 C-108.71413086 23.01809326 -108.36576172 22.41118652 -108.00683594 21.78588867 C-104.55770108 15.95997746 -104.55770108 15.95997746 -102 14 C-98.90498792 13.74734595 -96.79870027 13.60064987 -94 15 C-93.45408735 20.4260409 -95.14987342 23.64814586 -98.125 28 C-98.53371338 28.61504395 -98.94242676 29.23008789 -99.36352539 29.86376953 C-102.20354258 34.05205516 -105.0844633 37.75296956 -109 41 C-109.66 41 -110.32 41 -111 41 C-111.02687279 42.81242052 -111.04633715 44.62495233 -111.0625 46.4375 C-111.07410156 47.44683594 -111.08570313 48.45617187 -111.09765625 49.49609375 C-111.28612676 51.94021067 -111.28612676 51.94021067 -110 53 C-103.01296797 53 -99.79880503 49.76319237 -95 45 C-94.25363281 44.27941406 -93.50726563 43.55882812 -92.73828125 42.81640625 C-89.132606 39.28419128 -85.71525463 35.70347789 -82.5 31.8125 C-78.4275224 27.13008912 -73.8607161 22.90040191 -67.671875 21.45703125 C-62.57643128 21.13639959 -59.35685602 22.45636229 -55.4140625 25.625 C-54 27 -54 27 -52.5 29.25 C-50.99020236 31.34043785 -50.99020236 31.34043785 -47.625 31.9375 C-43.39307174 32.01046428 -42.3802842 31.44214365 -39 29 C-36.82880358 26.86470581 -34.81913224 24.60189624 -32.8125 22.3125 C-30.91579753 20.15434156 -28.99783601 18.06866032 -27 16 C-26.34 16 -25.68 16 -25 16 C-25 15.34 -25 14.68 -25 14 C-23.6105957 12.81079102 -23.6105957 12.81079102 -21.67578125 11.50390625 C-20.97646484 11.02759766 -20.27714844 10.55128906 -19.55664062 10.06054688 C-18.44579102 9.31901367 -18.44579102 9.31901367 -17.3125 8.5625 C-16.59126953 8.07201172 -15.87003906 7.58152344 -15.12695312 7.07617188 C-13.09496773 5.7011023 -11.05039811 4.34740447 -9 3 C-8.08605469 2.39027344 -7.17210937 1.78054687 -6.23046875 1.15234375 C-4 0 -4 0 0 0 Z " fill="#895234" transform="translate(387,187)"/>
<path d="M0 0 C6.27 0 12.54 0 19 0 C19.33 0.99 19.66 1.98 20 3 C18.35 3.66 16.7 4.32 15 5 C15 19.85 15 34.7 15 50 C19.62 50 24.24 50 29 50 C32.13111343 46.86888657 33.5143519 45.46924593 35.25 41.75 C35.58515625 41.04359375 35.9203125 40.3371875 36.265625 39.609375 C36.50796875 39.07828125 36.7503125 38.5471875 37 38 C37.99 38 38.98 38 40 38 C39.71561048 39.89693861 39.42216208 41.79252027 39.125 43.6875 C38.96257812 44.74324219 38.80015625 45.79898438 38.6328125 46.88671875 C38 50 38 50 36 55 C24.12 54.67 12.24 54.34 0 54 C0 53.01 0 52.02 0 51 C2.475 50.505 2.475 50.505 5 50 C4.67 35.15 4.34 20.3 4 5 C1.525 4.01 1.525 4.01 -1 3 C-0.67 2.01 -0.34 1.02 0 0 Z " fill="#723C07" transform="translate(185,288)"/>
<path d="M0 0 C0.33 0 0.66 0 1 0 C1.06058594 1.31355469 1.12117188 2.62710938 1.18359375 3.98046875 C1.26803256 5.71615541 1.35267888 7.45183198 1.4375 9.1875 C1.47681641 10.05181641 1.51613281 10.91613281 1.55664062 11.80664062 C1.78212118 17.97728581 1.78212118 17.97728581 3 24 C3.66 24.33 4.32 24.66 5 25 C5.65382968 27.08333912 6.22205131 29.19375855 6.75 31.3125 C11.32629875 48.30274143 20.84215104 61.60422097 35 72 C35.969375 72.721875 36.93875 73.44375 37.9375 74.1875 C38.948125 74.785625 39.95875 75.38375 41 76 C41.76699219 76.45890625 42.53398437 76.9178125 43.32421875 77.390625 C64.3201924 88.9867276 91.00108219 90.65907405 113.95019531 84.41259766 C125.33356278 80.92002729 136.27191961 75.6368077 146.16699219 69.03320312 C149.15491333 67.34901529 151.58411083 67 155 67 C155 68.98 155 70.96 155 73 C154.34 73 153.68 73 153 73 C153 72.01 153 71.02 153 70 C151.41529658 70.85162211 149.83234923 71.70651165 148.25 72.5625 C147.23035156 73.11164063 146.21070313 73.66078125 145.16015625 74.2265625 C143.19603945 75.32879863 141.25878232 76.48239724 139.37109375 77.7109375 C132.83885822 81.91362761 126.31991672 84.46065085 118.9375 86.8125 C118.02766357 87.1024585 117.11782715 87.39241699 116.18041992 87.69116211 C92.99831969 94.7627135 66.95143749 94.16059518 45 83.0625 C39.63428366 80.17975835 34.59504593 77.00370035 30 73 C29.20335937 72.33355469 28.40671875 71.66710937 27.5859375 70.98046875 C19.15247206 63.70628633 12.78589455 56.04243669 7.75 46.125 C7.43272949 45.50165771 7.11545898 44.87831543 6.78857422 44.23608398 C1.61058228 33.56038699 -0.59961555 24.13692872 -0.25 12.25 C-0.23195313 11.0640625 -0.21390625 9.878125 -0.1953125 8.65625 C-0.14875918 5.76994435 -0.08339409 2.88543548 0 0 Z " fill="#7E4B2E" transform="translate(119,163)"/>
<path d="M0 0 C2.70703125 0.63671875 2.70703125 0.63671875 4.5390625 2.484375 C6.34584193 5.81392505 6.19284912 7.87163025 5.70703125 11.63671875 C1.51263014 23.06413156 -5.68966507 30.05977175 -16.29296875 35.63671875 C-16.99035156 36.02085937 -17.68773437 36.405 -18.40625 36.80078125 C-20.29296875 37.63671875 -20.29296875 37.63671875 -23.29296875 37.63671875 C-22.73071055 34.13300045 -22.13933039 30.63478032 -21.54296875 27.13671875 C-21.38570312 26.15445313 -21.2284375 25.1721875 -21.06640625 24.16015625 C-20.00366076 18.02893225 -18.46113617 12.99724519 -15.29296875 7.63671875 C-14.87015625 6.87359375 -14.44734375 6.11046875 -14.01171875 5.32421875 C-10.165501 -0.00131351 -6.33549575 -0.1035993 0 0 Z " fill="#FBF7F1" transform="translate(222.29296875,124.36328125)"/>
<path d="M0 0 C5.94 0 11.88 0 18 0 C17.67 0.99 17.34 1.98 17 3 C16.01 3.33 15.02 3.66 14 4 C16.85931126 16.38318695 16.85931126 16.38318695 23 27 C24.3417678 23.73256344 25.67194359 20.46053092 27 17.1875 C27.57234375 15.7943457 27.57234375 15.7943457 28.15625 14.37304688 C28.5171875 13.48037109 28.878125 12.58769531 29.25 11.66796875 C29.58515625 10.84578857 29.9203125 10.0236084 30.265625 9.17651367 C31.15985056 6.90908534 31.15985056 6.90908534 31 4 C29.68 3.34 28.36 2.68 27 2 C27 1.34 27 0.68 27 0 C31.62 0 36.24 0 41 0 C40 3 40 3 38.171875 4.13549805 C34.8045341 7.02627845 33.7905651 10.7438967 32.25 14.83203125 C31.91000977 15.70139816 31.57001953 16.57076508 31.21972656 17.46647644 C30.13489018 20.24414384 29.06629595 23.02766796 28 25.8125 C26.93199763 28.5858843 25.86040317 31.35770374 24.78027344 34.12638855 C24.1093832 35.84754196 23.44559399 37.57148566 22.79003906 39.29853821 C20.50224301 45.18858528 18.41778897 50.38814068 13 54 C6.02236422 54.66453674 6.02236422 54.66453674 2.5 52.375 C0.62043164 49.39901677 0.68575493 47.45669582 1 44 C3.375 43.375 3.375 43.375 6 43 C8.1385485 45.1385485 8.42655063 46.13275314 9 49 C11.92985163 48.68595576 13.5342735 48.4943701 15.59179688 46.31030273 C17.76940149 41.83857091 18.25180674 39.03857165 17.0625 34.13330078 C15.75310609 30.43707223 14.18653367 26.86840995 12.54003906 23.3112793 C11.49763909 21.05739522 10.5071431 18.78588887 9.5234375 16.50585938 C8.8830952 15.05601321 8.23996069 13.60739635 7.59375 12.16015625 C7.29561401 11.48517593 6.99747803 10.81019562 6.69030762 10.11476135 C4.96046643 6.40476828 3.40131189 4.25584808 0 2 C0 1.34 0 0.68 0 0 Z " fill="#733D09" transform="translate(228,306)"/>
<path d="M0 0 C1.65 0 3.3 0 5 0 C8.82716049 6.50617284 8.82716049 6.50617284 9.875 9.5 C11.53953248 13.19896106 14.05832028 16.21550927 17 19 C17.99 19.33 18.98 19.66 20 20 C20.61875 20.639375 21.2375 21.27875 21.875 21.9375 C24.15239462 24.14791243 26.01708098 25.00569366 29 26 C29 26.66 29 27.32 29 28 C30.11375 28.103125 31.2275 28.20625 32.375 28.3125 C36.6507041 28.83745299 40.60613779 29.976477 44.703125 31.28125 C48.60590456 32.50252796 52.10302449 33.14954169 56.203125 33.31640625 C57.67265625 33.37924805 57.67265625 33.37924805 59.171875 33.44335938 C60.69554687 33.50233398 60.69554687 33.50233398 62.25 33.5625 C63.796875 33.62727539 63.796875 33.62727539 65.375 33.69335938 C67.9165387 33.79925682 70.45817196 33.90133443 73 34 C73.99 35.98 74.98 37.96 76 40 C60.58976002 45.13674666 37.64384368 37.65078534 23.75 31.0625 C19.88131645 29.0402336 16.42372927 26.71045234 13 24 C13 23.34 13 22.68 13 22 C12.34 22 11.68 22 11 22 C9.40566184 19.96840865 7.94212394 17.94804137 6.5 15.8125 C5.89478516 14.9452832 5.89478516 14.9452832 5.27734375 14.06054688 C1.99768612 9.27094786 0 5.8416586 0 0 Z " fill="#F0E0C7" transform="translate(124,0)"/>
<path d="M0 0 C0.00586624 0.64701874 0.01173248 1.29403748 0.01777649 1.96066284 C0.08155918 8.67637916 0.16593877 15.3916095 0.26245117 22.10693359 C0.29576863 24.61533209 0.32377902 27.12380678 0.34643555 29.63232422 C0.37985599 33.23177667 0.43216586 36.83052639 0.48828125 40.4296875 C0.49467117 41.55680145 0.5010611 42.68391541 0.50764465 43.84518433 C0.53733589 45.40657639 0.53733589 45.40657639 0.56762695 46.99951172 C0.57873001 47.91884491 0.58983307 48.8381781 0.60127258 49.78536987 C0.79864265 50.88161179 0.79864265 50.88161179 1 52 C1.99 52.66 2.98 53.32 4 54 C4 54.66 4 55.32 4 56 C-1.61 56 -7.22 56 -13 56 C-12.67 55.01 -12.34 54.02 -12 53 C-10.515 52.505 -10.515 52.505 -9 52 C-9 36.82 -9 21.64 -9 6 C-10.32 5.67 -11.64 5.34 -13 5 C-12.67 4.01 -12.34 3.02 -12 2 C-7.86787101 0.17417556 -4.46436767 -0.08117032 0 0 Z " fill="#723C08" transform="translate(286,286)"/>
<path d="M0 0 C3.14344435 1.74635797 5.46862726 3.46862726 8 6 C9.16095521 13.26727809 7.37042935 19.47217792 3.3359375 25.4765625 C-2.64562855 33.36460378 -10.39853177 40.80600245 -20 44 C-23.9375 44.1875 -23.9375 44.1875 -27 44 C-28.29633621 45.06645115 -28.29633621 45.06645115 -28.0625 47.5625 C-28.041875 48.366875 -28.02125 49.17125 -28 50 C-28.33 49.01 -28.66 48.02 -29 47 C-29.57443848 47.01571045 -30.14887695 47.0314209 -30.74072266 47.04760742 C-33.36871309 47.11035513 -35.99654537 47.14911506 -38.625 47.1875 C-39.98044922 47.22520508 -39.98044922 47.22520508 -41.36328125 47.26367188 C-46.63742609 47.32141799 -50.50913601 47.11744442 -55 44 C-55.495 42.515 -55.495 42.515 -56 41 C-54.86691406 41.23009766 -54.86691406 41.23009766 -53.7109375 41.46484375 C-48.6909083 42.1887848 -43.68939556 42.36319153 -38.625 42.5625 C-37.60277344 42.60568359 -36.58054688 42.64886719 -35.52734375 42.69335938 C-33.01834712 42.79887792 -30.50926057 42.90099213 -28 43 C-27.81824219 41.7934375 -27.63648438 40.586875 -27.44921875 39.34375 C-27.19575578 37.72909702 -26.94182447 36.11451751 -26.6875 34.5 C-26.56955078 33.70851562 -26.45160156 32.91703125 -26.33007812 32.1015625 C-24.62369565 21.42573367 -20.57851212 9.03877918 -12 2 C-8.41440194 -0.59646756 -4.27085576 -0.68990747 0 0 Z M-16.453125 11.24609375 C-21.58251171 20.37795645 -22.44436878 30.77255219 -24 41 C-12.9147779 38.33788018 -4.7656437 31.76895921 1.5546875 22.46484375 C4.43992266 17.54434811 5.52276252 13.75038774 5 8 C3.91931636 5.74798896 3.91931636 5.74798896 2 4 C-6.58403813 1.58375223 -11.64701901 4.10644457 -16.453125 11.24609375 Z " fill="#8A5C41" transform="translate(223,121)"/>
<path d="M0 0 C0 0.66 0 1.32 0 2 C-2.51327422 3.69782932 -5.03817791 5.29638514 -7.625 6.875 C-18.82331079 13.91930709 -28.99008056 21.92892305 -37.3515625 32.2578125 C-40.05198205 35.11181042 -42.41193803 35.89822004 -46.25 36.5625 C-50.93953966 35.85906905 -52.77882049 34.05601349 -56.10546875 30.82421875 C-59.4873429 27.56785746 -61.14838317 26.09462409 -65.9375 25.5625 C-70.0394578 25.69235714 -72.0086757 27.18463596 -75 30 C-75.66 30 -76.32 30 -77 30 C-77 30.66 -77 31.32 -77 32 C-77.721875 32.556875 -78.44375 33.11375 -79.1875 33.6875 C-82.09386529 36.07717812 -83.7878902 38.37565343 -85.7890625 41.51171875 C-87 43 -87 43 -90 44 C-89.21156181 36.2141729 -82.25851099 30.84103121 -76.65234375 25.953125 C-72.29416441 22.72484401 -68.62435863 21.07959143 -63.140625 21.47265625 C-58.52333759 22.61012669 -55.10957727 25.3356341 -52.5 29.25 C-50.99020236 31.34043785 -50.99020236 31.34043785 -47.625 31.9375 C-43.39307174 32.01046428 -42.3802842 31.44214365 -39 29 C-36.82880358 26.86470581 -34.81913224 24.60189624 -32.8125 22.3125 C-30.91579753 20.15434156 -28.99783601 18.06866032 -27 16 C-26.34 16 -25.68 16 -25 16 C-25 15.34 -25 14.68 -25 14 C-23.6105957 12.81079102 -23.6105957 12.81079102 -21.67578125 11.50390625 C-20.97646484 11.02759766 -20.27714844 10.55128906 -19.55664062 10.06054688 C-18.44579102 9.31901367 -18.44579102 9.31901367 -17.3125 8.5625 C-16.59126953 8.07201172 -15.87003906 7.58152344 -15.12695312 7.07617188 C-13.09496773 5.7011023 -11.05039811 4.34740447 -9 3 C-8.08605469 2.39027344 -7.17210937 1.78054687 -6.23046875 1.15234375 C-4 0 -4 0 0 0 Z " fill="#885538" transform="translate(387,187)"/>
<path d="M0 0 C0.33 10.56 0.66 21.12 1 32 C2.32 32.66 3.64 33.32 5 34 C4.67 34.66 4.34 35.32 4 36 C-1.28 36 -6.56 36 -12 36 C-12 35.01 -12 34.02 -12 33 C-10.515 32.505 -10.515 32.505 -9 32 C-8.67 23.09 -8.34 14.18 -8 5 C-9.65 5 -11.3 5 -13 5 C-12.67 4.01 -12.34 3.02 -12 2 C-7.61502988 0.06245506 -4.97863403 0 0 0 Z " fill="#713B06" transform="translate(309,306)"/>
<path d="M0 0 C2.28888468 0.47059309 4.56562007 0.977264 6.84179688 1.50585938 C7.96642334 1.76616943 7.96642334 1.76616943 9.11376953 2.03173828 C12.53015646 2.8690198 15.01368965 3.66212123 17.96679688 5.63085938 C11.95813022 11.13736081 7.66620748 14.09365714 -0.68945312 13.88476562 C-5.64554659 13.3478555 -9.5922355 11.68522593 -13.59570312 8.75585938 C-15.03320312 6.63085938 -15.03320312 6.63085938 -14.97070312 4.00585938 C-12.49486935 -2.26625286 -5.51445184 -1.0011829 0 0 Z " fill="#F9F3ED" transform="translate(164.033203125,210.369140625)"/>
<path d="M0 0 C0.99 0.495 0.99 0.495 2 1 C2 2.98 2 4.96 2 7 C1.34 7 0.68 7 0 7 C0 6.01 0 5.02 0 4 C-1.58470342 4.85162211 -3.16765077 5.70651165 -4.75 6.5625 C-5.76964844 7.11164063 -6.78929687 7.66078125 -7.83984375 8.2265625 C-9.80396055 9.32879863 -11.74121768 10.48239724 -13.62890625 11.7109375 C-20.16114178 15.91362761 -26.68008328 18.46065085 -34.0625 20.8125 C-35.42725464 21.24743774 -35.42725464 21.24743774 -36.81958008 21.69116211 C-46.24122465 24.56517452 -55.50637108 26.38133635 -65.375 26.3125 C-66.18501465 26.30976074 -66.9950293 26.30702148 -67.82958984 26.30419922 C-74.73696656 26.1852715 -81.48009672 25.44216308 -88 23 C-88.33 22.34 -88.66 21.68 -89 21 C-87.47584473 21.03927612 -87.47584473 21.03927612 -85.92089844 21.0793457 C-56.47074315 21.77072355 -32.05771057 19.86723452 -6.83300781 3.03320312 C-4.89896724 1.94305133 -3.15238721 1.49361413 -1 1 C-0.67 0.67 -0.34 0.34 0 0 Z " fill="#855336" transform="translate(272,229)"/>
<path d="M0 0 C0.33 0.66 0.66 1.32 1 2 C-0.0828125 3.0209375 -0.0828125 3.0209375 -1.1875 4.0625 C-3.30917241 6.16006249 -5.00575951 8.34995143 -6.6875 10.8125 C-7.450625 11.864375 -8.21375 12.91625 -9 14 C-9.66 14 -10.32 14 -11 14 C-11.2475 14.680625 -11.495 15.36125 -11.75 16.0625 C-13 19 -13 19 -14.875 22.1875 C-23.73742659 37.5731997 -24.47385693 53.71299706 -24 71 C-24.99 71.495 -24.99 71.495 -26 72 C-27.26001624 66.10637565 -27.22052613 60.24793228 -27.25 54.25 C-27.270625 53.21617187 -27.29125 52.18234375 -27.3125 51.1171875 C-27.40514393 32.72736666 -18.12971094 16.37712337 -5.625 3.3125 C-3 1 -3 1 0 0 Z " fill="#835337" transform="translate(147,116)"/>
<path d="M0 0 C9 0 9 0 11.5625 1.6875 C13.30414195 4.48927182 13.64744805 5.76275975 13 9 C11.4375 11.3125 11.4375 11.3125 9 13 C5.25 13.25 5.25 13.25 2 13 C2 14.65 2 16.3 2 18 C1.34 18 0.68 18 0 18 C0 12.06 0 6.12 0 0 Z " fill="#723C08" transform="translate(268,376)"/>
<path d="M0 0 C1.32 0 2.64 0 4 0 C4 4.29 4 8.58 4 13 C3.01 12.67 2.02 12.34 1 12 C-0.7015625 12.3403125 -0.7015625 12.3403125 -2.4375 12.6875 C-6 13 -6 13 -8.5 11.5 C-10 9 -10 9 -9.9375 5.375 C-8.33801894 -0.38313183 -5.34064173 -0.21798538 0 0 Z " fill="#835224" transform="translate(373,381)"/>
<path d="M0 0 C1.32 0 2.64 0 4 0 C4 4.29 4 8.58 4 13 C2.68 13 1.36 13 0 13 C-1.485 13.12375 -1.485 13.12375 -3 13.25 C-6 13 -6 13 -8.375 11.3125 C-10 9 -10 9 -10.5 6.5 C-9.29189957 0.45949783 -5.60655151 -0.46721263 0 0 Z " fill="#825122" transform="translate(201,381)"/>
<path d="M0 0 C0.62261719 0.19335938 1.24523437 0.38671875 1.88671875 0.5859375 C18.81504067 5.35514395 36.54679178 5.31829559 54 5 C51.19436013 7.80563987 48.39018188 7.41631396 44.625 7.5625 C39.78500756 7.70370515 39.78500756 7.70370515 35.03051758 8.50415039 C27.90619247 10.24390082 20.46983744 8.56100229 13.4375 7.125 C12.09655273 6.86396484 12.09655273 6.86396484 10.72851562 6.59765625 C5.44060547 5.5532263 0.21760846 4.35158585 -5 3 C-5 2.67 -5 2.34 -5 2 C-3.35 2 -1.7 2 0 2 C0 1.34 0 0.68 0 0 Z " fill="#966144" transform="translate(189,214)"/>
<path d="M0 0 C1.60875 1.051875 1.60875 1.051875 3.25 2.125 C4.82678679 3.09406688 6.41079156 4.05144121 8 5 C9.2375 5.73863281 9.2375 5.73863281 10.5 6.4921875 C19.79005761 11.58588386 29.72192482 13.72784391 40 16 C40 16.33 40 16.66 40 17 C37.98177083 16.96744792 35.96354167 16.93489583 33.9453125 16.90234375 C31.91814596 16.87350758 31.91814596 16.87350758 30 18 C23.68137868 17.23740777 18.51598312 14.99367104 12.875 12.1875 C12.20645996 11.8562915 11.53791992 11.52508301 10.84912109 11.18383789 C6.24730951 8.82511185 2.14821981 6.08692201 -2 3 C-1.34 2.01 -0.68 1.02 0 0 Z " fill="#90634A" transform="translate(152,234)"/>
<path d="M0 0 C4.62 0 9.24 0 14 0 C13 3 13 3 11.08496094 4.35473633 C8.45509816 6.42998753 7.81278897 8.20419406 6.640625 11.32421875 C6.05087891 12.86625977 6.05087891 12.86625977 5.44921875 14.43945312 C5.05347656 15.51130859 4.65773438 16.58316406 4.25 17.6875 C3.63318359 19.31268555 3.63318359 19.31268555 3.00390625 20.97070312 C1.99143555 23.64315486 0.99067412 26.31940834 0 29 C-3 29 -3 29 -5 28 C-4.1646875 26.4221875 -4.1646875 26.4221875 -3.3125 24.8125 C1.90744345 14.81310576 1.90744345 14.81310576 4 4 C2.68 3.34 1.36 2.68 0 2 C0 1.34 0 0.68 0 0 Z " fill="#794614" transform="translate(255,306)"/>
<path d="M0 0 C2 2 2 2 2.125 4.625 C2.08375 5.40875 2.0425 6.1925 2 7 C2.66 7.33 3.32 7.66 4 8 C2.02 8.99 0.04 9.98 -2 11 C-2 12.65 -2 14.3 -2 16 C-2.33 15.01 -2.66 14.02 -3 13 C-3.57443848 13.01571045 -4.14887695 13.0314209 -4.74072266 13.04760742 C-7.36871309 13.11035513 -9.99654537 13.14911506 -12.625 13.1875 C-13.52863281 13.21263672 -14.43226563 13.23777344 -15.36328125 13.26367188 C-20.63742609 13.32141799 -24.50913601 13.11744442 -29 10 C-29.33 9.01 -29.66 8.02 -30 7 C-29.24460938 7.15339844 -28.48921875 7.30679688 -27.7109375 7.46484375 C-22.6909083 8.1887848 -17.68939556 8.36319153 -12.625 8.5625 C-11.60277344 8.60568359 -10.58054688 8.64886719 -9.52734375 8.69335938 C-7.01836595 8.79887713 -4.5091993 8.89988763 -2 9 C-1.34 6.03 -0.68 3.06 0 0 Z " fill="#93634A" transform="translate(197,155)"/>
<path d="M0 0 C1.875 1.25 1.875 1.25 3 3 C3 4.32 3 5.64 3 7 C-0.3 7 -3.6 7 -7 7 C-6.01 8.485 -6.01 8.485 -5 10 C-1.535 9.505 -1.535 9.505 2 9 C1.34 10.32 0.68 11.64 0 13 C-3.51903714 13.31991247 -5.42015168 13.37169764 -8.4375 11.4375 C-10 9 -10 9 -9.9375 5.375 C-8.3868786 -0.20723702 -5.30716391 -0.55282957 0 0 Z " fill="#825122" transform="translate(358,381)"/>
<path d="M0 0 C2.43816585 -0.0809723 4.87364384 -0.14046972 7.3125 -0.1875 C8.34793945 -0.22520508 8.34793945 -0.22520508 9.40429688 -0.26367188 C12.30962669 -0.3057781 14.45819124 -0.33540542 16.96875 1.21875 C18.30055824 3.51914605 18.30237367 5.04540568 18.1875 7.6875 C18.16042969 8.49574219 18.13335937 9.30398438 18.10546875 10.13671875 C18.05326172 11.05904297 18.05326172 11.05904297 18 12 C17.01 12 16.02 12 15 12 C14.67 9.03 14.34 6.06 14 3 C13.01 3 12.02 3 11 3 C10.67 6.3 10.34 9.6 10 13 C9.34 13 8.68 13 8 13 C7.67 10.03 7.34 7.06 7 4 C5.35 3.67 3.7 3.34 2 3 C2 6.3 2 9.6 2 13 C1.34 13 0.68 13 0 13 C0 8.71 0 4.42 0 0 Z " fill="#794614" transform="translate(219,381)"/>
<path d="M0 0 C0.33 0 0.66 0 1 0 C1.06058594 1.31355469 1.12117188 2.62710938 1.18359375 3.98046875 C1.26803256 5.71615541 1.35267888 7.45183198 1.4375 9.1875 C1.47681641 10.05181641 1.51613281 10.91613281 1.55664062 11.80664062 C1.78212118 17.97728581 1.78212118 17.97728581 3 24 C3.66 24.33 4.32 24.66 5 25 C5.74714616 27.20349747 6.398737 29.43980979 7 31.6875 C8.21351068 36.17654148 9.48674781 40.60211082 11 45 C10.01 45.66 9.02 46.32 8 47 C7.0394728 44.62586674 6.08152647 42.25074481 5.125 39.875 C4.85558594 39.20984375 4.58617188 38.5446875 4.30859375 37.859375 C4.04433594 37.20195312 3.78007813 36.54453125 3.5078125 35.8671875 C3.26691895 35.27019043 3.02602539 34.67319336 2.77783203 34.05810547 C2.52114746 33.37893066 2.26446289 32.69975586 2 32 C1.64292969 31.05962891 1.28585938 30.11925781 0.91796875 29.15039062 C-0.04771485 25.83624671 -0.22940211 23.16961356 -0.1953125 19.7265625 C-0.18886719 18.57285156 -0.18242188 17.41914063 -0.17578125 16.23046875 C-0.15902344 15.04066406 -0.14226562 13.85085937 -0.125 12.625 C-0.11597656 11.41199219 -0.10695313 10.19898438 -0.09765625 8.94921875 C-0.07416588 5.96594227 -0.04131682 2.98307406 0 0 Z " fill="#956A52" transform="translate(119,163)"/>
<path d="M0 0 C1.875 1.25 1.875 1.25 3 3 C3 4.32 3 5.64 3 7 C-0.3 7 -3.6 7 -7 7 C-6.01 8.485 -6.01 8.485 -5 10 C-1.535 9.505 -1.535 9.505 2 9 C2 9.99 2 10.98 2 12 C-0.79870027 13.39935013 -2.90498792 13.25265405 -6 13 C-7.875 11.9375 -7.875 11.9375 -9 10 C-9.63316583 4.09045226 -9.63316583 4.09045226 -7.875 1.0625 C-5.11019567 -0.50422245 -3.11811483 -0.38976435 0 0 Z " fill="#774310" transform="translate(319,381)"/>
<path d="M0 0 C-1.02954156 7.38060961 -5.73922111 14.45250159 -11.4375 19.1875 C-12.7059375 20.0846875 -12.7059375 20.0846875 -14 21 C-13.37406396 16.90502084 -12.03471847 13.63661344 -10.1875 9.9375 C-9.68605469 8.91527344 -9.18460937 7.89304688 -8.66796875 6.83984375 C-4.65061898 0 -4.65061898 0 0 0 Z " fill="#F2EBE4" transform="translate(290,204)"/>
<path d="M0 0 C4.16285652 0.26261547 8.32542933 0.52927096 12.48779297 0.79956055 C13.90178538 0.89082234 15.31584766 0.9810085 16.72998047 1.07006836 C18.77070431 1.19878209 20.81113982 1.33145061 22.8515625 1.46484375 C24.07697754 1.543396 25.30239258 1.62194824 26.56494141 1.70288086 C29.7548794 1.97879803 32.85177583 2.42472209 36 3 C31.95346825 5.69768783 28.87822649 5.34297532 24.125 5.3125 C23.2788916 5.30976074 22.4327832 5.30702148 21.56103516 5.30419922 C14.50834794 5.1879241 7.66182599 4.49532314 1 2 C0.67 1.34 0.34 0.68 0 0 Z " fill="#884C2E" transform="translate(183,250)"/>
<path d="M0 0 C3.5 0.25 3.5 0.25 5.5 2.25 C4.93181818 7.81818182 4.93181818 7.81818182 3.5 9.25 C0.0625 9.4375 0.0625 9.4375 -3.5 9.25 C-5.5 7.25 -5.5 7.25 -5.75 4.75 C-5.33482506 0.59825061 -4.03511096 0.28822221 0 0 Z " fill="#743E0A" transform="translate(304.5,288.75)"/>
<path d="M0 0 C8.23460137 0.05270145 17.46757492 0.69578385 25.00390625 4.265625 C25.65234375 6.3359375 25.65234375 6.3359375 26.00390625 8.265625 C22.87635649 7.652957 19.75244258 7.02341038 16.62890625 6.390625 C15.29472656 6.12958984 15.29472656 6.12958984 13.93359375 5.86328125 C13.0828125 5.68925781 12.23203125 5.51523438 11.35546875 5.3359375 C10.56994629 5.17883301 9.78442383 5.02172852 8.97509766 4.85986328 C7.00390625 4.265625 7.00390625 4.265625 5.00390625 2.265625 C2.79317648 2.02308687 2.79317648 2.02308687 0.37890625 2.140625 C-0.84699219 2.16769531 -0.84699219 2.16769531 -2.09765625 2.1953125 C-3.03738281 2.23011719 -3.03738281 2.23011719 -3.99609375 2.265625 C-1.99609375 0.265625 -1.99609375 0.265625 0 0 Z " fill="#8E5A41" transform="translate(154.99609375,206.734375)"/>
<path d="M0 0 C-0.28875 0.77730469 -0.5775 1.55460938 -0.875 2.35546875 C-2.56780696 7.83945798 -3.48618914 13.45242001 -4.5 19.09570312 C-4.665 19.96775391 -4.83 20.83980469 -5 21.73828125 C-5.144375 22.53274658 -5.28875 23.32721191 -5.4375 24.14575195 C-5.623125 24.75765381 -5.80875 25.36955566 -6 26 C-6.66 26.33 -7.32 26.66 -8 27 C-6.91437999 5.58787774 -6.91437999 5.58787774 -6 0 C-3.50907189 -1.24546405 -2.58919267 -0.7767578 0 0 Z " fill="#7D4629" transform="translate(200,165)"/>
<path d="M0 0 C-0.639375 0.103125 -1.27875 0.20625 -1.9375 0.3125 C-2.618125 0.539375 -3.29875 0.76625 -4 1 C-4.33 1.99 -4.66 2.98 -5 4 C-11.70856847 7.09626237 -18.77441195 5.77858014 -25.9375 5.125 C-27.19369141 5.02058594 -28.44988281 4.91617188 -29.74414062 4.80859375 C-32.83057947 4.55041255 -35.91552765 4.28055116 -39 4 C-39 3.67 -39 3.34 -39 3 C-38.33057373 2.98541748 -37.66114746 2.97083496 -36.97143555 2.95581055 C-33.87627126 2.88037075 -30.78207545 2.78403473 -27.6875 2.6875 C-26.63498047 2.66494141 -25.58246094 2.64238281 -24.49804688 2.61914062 C-18.07322943 2.40168527 -12.46487347 1.55220133 -6.35083008 -0.46557617 C-3.81692116 -1.04162006 -2.42737203 -0.84325144 0 0 Z " fill="#946249" transform="translate(235,248)"/>
<path d="M0 0 C0.66 0 1.32 0 2 0 C1.45997003 4.08262656 0.27244293 6.37975442 -2.3125 9.5625 C-2.90675781 10.30628906 -3.50101562 11.05007812 -4.11328125 11.81640625 C-7.932 16.236 -7.932 16.236 -10 18 C-11.32 18 -12.64 18 -14 18 C-13.88637738 16.5199159 -13.75877092 15.04089926 -13.625 13.5625 C-13.55539062 12.73878906 -13.48578125 11.91507813 -13.4140625 11.06640625 C-13.27742188 10.38449219 -13.14078125 9.70257813 -13 9 C-12.34 8.67 -11.68 8.34 -11 8 C-11 9.98 -11 11.96 -11 14 C-6.00453462 8.51475562 -6.00453462 8.51475562 -1.6875 2.5 C-1.130625 1.675 -0.57375 0.85 0 0 Z " fill="#824C31" transform="translate(288,210)"/>
<path d="M0 0 C3 1 3 1 4.1875 3.375 C5 6 5 6 5 9 C5.66 9 6.32 9 7 9 C7.185625 7.88625 7.185625 7.88625 7.375 6.75 C7.95486701 4.19858515 8.73708739 2.2732427 10 0 C10.66 0 11.32 0 12 0 C11.36069268 4.10983274 10.0408579 7.50212212 8.25 11.25 C7.76015625 12.30703125 7.2703125 13.3640625 6.765625 14.453125 C5 17 5 17 2.296875 17.859375 C1.53890625 17.90578125 0.7809375 17.9521875 0 18 C0.495 16.515 0.495 16.515 1 15 C1.99 15 2.98 15 4 15 C3.45318776 10.40677722 2.09331358 7.09561352 0 3 C0 2.01 0 1.02 0 0 Z " fill="#7C4A19" transform="translate(140,381)"/>
<path d="M0 0 C0.66 0 1.32 0 2 0 C2.33 1.65 2.66 3.3 3 5 C3.928125 4.938125 4.85625 4.87625 5.8125 4.8125 C9 5 9 5 10.6875 6.1875 C12.45312631 8.62574585 12.30348915 10.21044507 12.1875 13.1875 C12.16042969 14.08855469 12.13335937 14.98960937 12.10546875 15.91796875 C12.07066406 16.60503906 12.03585937 17.29210937 12 18 C11.34 18 10.68 18 10 18 C9.67 15.03 9.34 12.06 9 9 C7.34385343 8.61781233 5.67542976 8.28604898 4 8 C2.41727399 9.58272601 2.65264253 11.38034003 2.4375 13.5625 C2.35371094 14.38878906 2.26992188 15.21507812 2.18359375 16.06640625 C2.12300781 16.70449219 2.06242187 17.34257812 2 18 C1.34 18 0.68 18 0 18 C0 12.06 0 6.12 0 0 Z " fill="#743F0B" transform="translate(333,376)"/>
<path d="M0 0 C0.66 0 1.32 0 2 0 C2 1.98 2 3.96 2 6 C3.093125 5.773125 4.18625 5.54625 5.3125 5.3125 C9 5 9 5 10.71875 6.15625 C12.4297485 8.61841858 12.30315475 10.21902799 12.1875 13.1875 C12.16042969 14.08855469 12.13335937 14.98960937 12.10546875 15.91796875 C12.07066406 16.60503906 12.03585938 17.29210937 12 18 C11.34 18 10.68 18 10 18 C9.67 15.03 9.34 12.06 9 9 C7.34385343 8.61781233 5.67542976 8.28604898 4 8 C2.41727399 9.58272601 2.65264253 11.38034003 2.4375 13.5625 C2.35371094 14.38878906 2.26992187 15.21507812 2.18359375 16.06640625 C2.12300781 16.70449219 2.06242188 17.34257812 2 18 C1.34 18 0.68 18 0 18 C0 12.06 0 6.12 0 0 Z " fill="#733D09" transform="translate(176,376)"/>
<path d="M0 0 C4.62 0 9.24 0 14 0 C14 0.66 14 1.32 14 2 C12.02 2 10.04 2 8 2 C8 7.28 8 12.56 8 18 C7.01 17.67 6.02 17.34 5 17 C5 12.05 5 7.1 5 2 C3.35 2 1.7 2 0 2 C0 1.34 0 0.68 0 0 Z " fill="#804F1F" transform="translate(103,376)"/>
<path d="M0 0 C1.2039337 3.75399798 1.09877617 7.33217412 1.0625 11.25 C1.05347656 12.51328125 1.04445312 13.7765625 1.03515625 15.078125 C1.02355469 16.04234375 1.01195312 17.0065625 1 18 C0.34 18 -0.32 18 -1 18 C-0.938125 18.845625 -0.87625 19.69125 -0.8125 20.5625 C-1.04015628 24.73619843 -2.20207814 27.25432947 -4 31 C-4.33 31 -4.66 31 -5 31 C-6.09367096 26.23420205 -5.76635719 22.8441202 -4.5625 18.125 C-4.27503906 16.97257812 -3.98757812 15.82015625 -3.69140625 14.6328125 C-3.46324219 13.76398438 -3.23507813 12.89515625 -3 12 C-2.34 12 -1.68 12 -1 12 C-1.01160156 11.38511719 -1.02320313 10.77023438 -1.03515625 10.13671875 C-1.04417969 9.32847656 -1.05320313 8.52023438 -1.0625 7.6875 C-1.07410156 6.88699219 -1.08570313 6.08648437 -1.09765625 5.26171875 C-1 3 -1 3 0 0 Z " fill="#8A5C42" transform="translate(192,181)"/>
<path d="M0 0 C0.66 0 1.32 0 2 0 C2.33 2.97 2.66 5.94 3 9 C5.97 9.495 5.97 9.495 9 10 C9.33 6.7 9.66 3.4 10 0 C10.66 0 11.32 0 12 0 C12 4.29 12 8.58 12 13 C10.576875 13.061875 9.15375 13.12375 7.6875 13.1875 C6.48673828 13.23970703 6.48673828 13.23970703 5.26171875 13.29296875 C3 13 3 13 1.21875 11.8125 C-0.42341401 9.37030737 -0.30107677 7.72763706 -0.1875 4.8125 C-0.16042969 3.91144531 -0.13335937 3.01039063 -0.10546875 2.08203125 C-0.07066406 1.39496094 -0.03585937 0.70789063 0 0 Z " fill="#75400D" transform="translate(284,381)"/>
<path d="M0 0 C0.33 0 0.66 0 1 0 C1 2.31 1 4.62 1 7 C1.66 7 2.32 7 3 7 C3 7.66 3 8.32 3 9 C1.35 9 -0.3 9 -2 9 C-2.185625 9.763125 -2.37125 10.52625 -2.5625 11.3125 C-4.63445622 15.18615728 -6.92286538 15.56545263 -11 17 C-11 14 -11 14 -9.6875 12.61328125 C-8.125 11.40885417 -6.5625 10.20442708 -5 9 C-5.33 7.68 -5.66 6.36 -6 5 C-4.68 5 -3.36 5 -2 5 C-1.34 3.35 -0.68 1.7 0 0 Z " fill="#814A2A" transform="translate(186,207)"/>
<path d="M0 0 C0.33 0 0.66 0 1 0 C1 5.61 1 11.22 1 17 C1.66 17.33 2.32 17.66 3 18 C1.83795007 24.54849313 0.26616615 30.74538144 -2 37 C-2.33 36.34 -2.66 35.68 -3 35 C-3.66 34.67 -4.32 34.34 -5 34 C-4.72285156 33.30519531 -4.44570313 32.61039063 -4.16015625 31.89453125 C-0.41559147 21.38043299 -0.18210488 11.06915083 0 0 Z " fill="#88573C" transform="translate(273,165)"/>
<path d="M0 0 C1.423125 -0.061875 2.84625 -0.12375 4.3125 -0.1875 C5.51326172 -0.23970703 5.51326172 -0.23970703 6.73828125 -0.29296875 C9 0 9 0 10.78125 1.1875 C12.42341401 3.62969263 12.30107677 5.27236294 12.1875 8.1875 C12.16042969 9.08855469 12.13335937 9.98960937 12.10546875 10.91796875 C12.07066406 11.60503906 12.03585938 12.29210937 12 13 C11.34 13 10.68 13 10 13 C9.67 10.03 9.34 7.06 9 4 C7.34385343 3.61781233 5.67542976 3.28604898 4 3 C2.41727399 4.58272601 2.65264253 6.38034003 2.4375 8.5625 C2.35371094 9.38878906 2.26992187 10.21507812 2.18359375 11.06640625 C2.12300781 11.70449219 2.06242187 12.34257812 2 13 C1.34 13 0.68 13 0 13 C0 8.71 0 4.42 0 0 Z " fill="#784411" transform="translate(125,381)"/>
<path d="M0 0 C0.33 0 0.66 0 1 0 C0.67 2.64 0.34 5.28 0 8 C-0.66 7.67 -1.32 7.34 -2 7 C-2.66 9.97 -3.32 12.94 -4 16 C-3.34 16 -2.68 16 -2 16 C-2.33 19.63 -2.66 23.26 -3 27 C-3.99 27.33 -4.98 27.66 -6 28 C-6.12375 27.030625 -6.2475 26.06125 -6.375 25.0625 C-6.684375 23.5465625 -6.684375 23.5465625 -7 22 C-7.66 21.67 -8.32 21.34 -9 21 C-8.01 21 -7.02 21 -6 21 C-6 21.99 -6 22.98 -6 24 C-5.34 24 -4.68 24 -4 24 C-4.33 22.02 -4.66 20.04 -5 18 C-5.99 18.66 -6.98 19.32 -8 20 C-8.66 19.34 -9.32 18.68 -10 18 C-9.071875 17.5359375 -9.071875 17.5359375 -8.125 17.0625 C-5.31498065 14.33512828 -5.24829161 12.05645913 -4.56640625 8.296875 C-3.72486661 4.88428668 -2.17491869 2.73618803 0 0 Z " fill="#855D45" transform="translate(278,212)"/>
<path d="M0 0 C2.875 -0.125 2.875 -0.125 6 0 C8 2 8 2 8.25 4.5 C8 7 8 7 6 9 C2.875 9.125 2.875 9.125 0 9 C0 6.03 0 3.06 0 0 Z " fill="#EFE6DC" transform="translate(270,378)"/>
<path d="M0 0 C0.33 0.99 0.66 1.98 1 3 C0.030625 2.979375 -0.93875 2.95875 -1.9375 2.9375 C-4.87465895 2.64381501 -4.87465895 2.64381501 -6 4 C-6.04063832 5.66617115 -6.042721 7.33388095 -6 9 C-5.236875 9.144375 -4.47375 9.28875 -3.6875 9.4375 C-1 10 -1 10 2 11 C0 13 0 13 -2.875 13.375 C-6 13 -6 13 -8.4375 11.4375 C-10 9 -10 9 -9.9375 5.375 C-8.34409134 -0.36127119 -5.34762882 -0.23767239 0 0 Z " fill="#7B4817" transform="translate(171,381)"/>
<path d="M0 0 C0.66 0 1.32 0 2 0 C2 8.91 2 17.82 2 27 C1.34 27.33 0.68 27.66 0 28 C-1.13466279 22.56082283 -1.14889391 17.27745741 -1.125 11.75 C-1.12886719 10.83992187 -1.13273437 9.92984375 -1.13671875 8.9921875 C-1.13542969 8.12335938 -1.13414063 7.25453125 -1.1328125 6.359375 C-1.13168457 5.57014648 -1.13055664 4.78091797 -1.12939453 3.96777344 C-1 2 -1 2 0 0 Z " fill="#733514" transform="translate(121,160)"/>
<path d="M0 0 C4.55555556 0.55555556 4.55555556 0.55555556 6 2 C6.1875 4.4375 6.1875 4.4375 6 7 C5.34 7.66 4.68 8.32 4 9 C-0.55555556 8.44444444 -0.55555556 8.44444444 -2 7 C-2.1875 4.5625 -2.1875 4.5625 -2 2 C-1.34 1.34 -0.68 0.68 0 0 Z " fill="#F7F1E9" transform="translate(368,383)"/>
<path d="M0 0 C4.55555556 0.55555556 4.55555556 0.55555556 6 2 C6.1875 4.4375 6.1875 4.4375 6 7 C5.34 7.66 4.68 8.32 4 9 C-0.55555556 8.44444444 -0.55555556 8.44444444 -2 7 C-2.1875 4.5625 -2.1875 4.5625 -2 2 C-1.34 1.34 -0.68 0.68 0 0 Z " fill="#F7F1EA" transform="translate(196,383)"/>
<path d="M0 0 C-2.80563987 2.80563987 -5.60981812 2.41631396 -9.375 2.5625 C-13.36006445 2.74190424 -17.13213425 2.96634622 -21 4 C-22.53879581 4.11291505 -24.08212089 4.17459967 -25.625 4.1875 C-26.78902344 4.20876953 -26.78902344 4.20876953 -27.9765625 4.23046875 C-30 4 -30 4 -32 2 C-29.15120682 1.05040227 -27.11073447 0.8099873 -24.140625 0.68359375 C-23.18929687 0.64169922 -22.23796875 0.59980469 -21.2578125 0.55664062 C-20.26523438 0.51732422 -19.27265625 0.47800781 -18.25 0.4375 C-16.78433594 0.37272461 -16.78433594 0.37272461 -15.2890625 0.30664062 C-10.18794475 0.09008374 -5.1055406 -0.0499145 0 0 Z " fill="#90583A" transform="translate(243,219)"/>
<path d="M0 0 C0.99 0.33 1.98 0.66 3 1 C3 1.99 3 2.98 3 4 C3.66 4 4.32 4 5 4 C5 4.66 5 5.32 5 6 C4.34 6 3.68 6 3 6 C3 9.3 3 12.6 3 16 C2.01 16 1.02 16 0 16 C0 12.7 0 9.4 0 6 C-0.66 6 -1.32 6 -2 6 C-2 5.34 -2 4.68 -2 4 C-1.34 4 -0.68 4 0 4 C0 2.68 0 1.36 0 0 Z " fill="#825223" transform="translate(392,377)"/>
<path d="M0 0 C-1 2 -1 2 -3.91015625 3.1171875 C-8.71975649 4.37336216 -13.50019451 4.21741897 -18.4375 4.125 C-19.35982422 4.11597656 -20.28214844 4.10695312 -21.23242188 4.09765625 C-23.48855809 4.0742766 -25.74413684 4.04150916 -28 4 C-24.12984434 1.87687053 -21.0513834 1.67670193 -16.625 1.5 C-11.19758323 1.28246827 -4.93652747 -1.64550916 0 0 Z " fill="#864823" transform="translate(250,219)"/>
<path d="M0 0 C3 0 6 0 9 0 C9 0.66 9 1.32 9 2 C7.35 2.33 5.7 2.66 4 3 C3.67 6.3 3.34 9.6 3 13 C2.01 13 1.02 13 0 13 C0 8.71 0 4.42 0 0 Z " fill="#895B2F" transform="translate(208,381)"/>
<path d="M0 0 C0.33 0.66 0.66 1.32 1 2 C1.99 2.33 2.98 2.66 4 3 C1.56427941 3.83887056 -0.87333217 4.67126529 -3.3125 5.5 C-4.34793945 5.85771484 -4.34793945 5.85771484 -5.40429688 6.22265625 C-8.38931489 7.23208263 -10.82658914 8 -14 8 C-14 7.34 -14 6.68 -14 6 C-9.79283456 2.87855467 -4.94627599 1.51944426 0 0 Z " fill="#8C5D42" transform="translate(245,243)"/>
<path d="M0 0 C2.0625 0.4375 2.0625 0.4375 4 1 C3.44570312 1.67546875 2.89140625 2.3509375 2.3203125 3.046875 C1.59585938 3.93890625 0.87140625 4.8309375 0.125 5.75 C-0.59429687 6.63171875 -1.31359375 7.5134375 -2.0546875 8.421875 C-3.68442588 10.58176924 -4.90784005 12.539766 -6 15 C-6.33 15 -6.66 15 -7 15 C-7.48311017 11.77926556 -7.4060262 9.66939455 -5.69921875 6.85546875 C-3.90328071 4.47660094 -2.11074387 2.11074387 0 0 Z " fill="#7B4729" transform="translate(210,124)"/>
<path d="M0 0 C2.66666667 0 5.33333333 0 8 0 C8 0.66 8 1.32 8 2 C7.360625 2.165 6.72125 2.33 6.0625 2.5 C3.83880759 3.781786 3.83880759 3.781786 3.51171875 5.9140625 C3.2724022 7.93575155 3.13106972 9.96841939 3 12 C2.01 12.33 1.02 12.66 0 13 C0 8.71 0 4.42 0 0 Z " fill="#7F4E1E" transform="translate(380,381)"/>
<path d="M0 0 C0.99 0.495 0.99 0.495 2 1 C2.94137255 3.82411765 3.11725382 5.52918032 3.09765625 8.44921875 C3.09443359 9.29677734 3.09121094 10.14433594 3.08789062 11.01757812 C3.07951172 11.89865234 3.07113281 12.77972656 3.0625 13.6875 C3.05798828 14.58017578 3.05347656 15.47285156 3.04882812 16.39257812 C3.03704983 18.59511987 3.02060164 20.79752599 3 23 C2.34 23 1.68 23 1 23 C0.67 15.41 0.34 7.82 0 0 Z " fill="#763817" transform="translate(273,159)"/>
<path d="M0 0 C1.60893811 3.10086255 2.980352 6.24540934 4.25 9.5 C4.62640625 10.4384375 5.0028125 11.376875 5.390625 12.34375 C6 15 6 15 5.109375 17.34375 C4.74328125 17.8903125 4.3771875 18.436875 4 19 C-1 11.5 -1 11.5 -1 8 C-0.34 8 0.32 8 1 8 C0.67 5.36 0.34 2.72 0 0 Z " fill="#8E624C" transform="translate(124,191)"/>
<path d="M0 0 C3.34953234 0.6172172 5.47878824 1.83203165 8.1875 3.875 C9.22970703 4.64457031 9.22970703 4.64457031 10.29296875 5.4296875 C12 7 12 7 13 10 C9.57777323 9.35637019 7.15046485 8.0302073 4.25 6.125 C3.45078125 5.61195312 2.6515625 5.09890625 1.828125 4.5703125 C0.92320312 3.79300781 0.92320312 3.79300781 0 3 C0 2.01 0 1.02 0 0 Z " fill="#7B482D" transform="translate(238,109)"/>
<path d="M0 0 C-0.33 0.66 -0.66 1.32 -1 2 C-2.99609375 2.5625 -2.99609375 2.5625 -5.4375 3 C-9.13840398 3.62251162 -9.13840398 3.62251162 -12 6 C-12.69748583 7.31747324 -13.36959957 8.64914193 -14 10 C-15 9 -15 9 -15.25 6.0625 C-15.1675 5.051875 -15.085 4.04125 -15 3 C-10.12206417 -0.25195722 -5.77608621 -0.11325659 0 0 Z " fill="#804A29" transform="translate(161,208)"/>
<path d="M0 0 C2.5 0.3125 2.5 0.3125 5 1 C6.20272819 3.40545638 6.10071472 4.94996953 6.0625 7.625 C6.05347656 8.44226563 6.04445312 9.25953125 6.03515625 10.1015625 C6.02355469 10.72804688 6.01195312 11.35453125 6 12 C5.01 12 4.02 12 3 12 C2.96261719 11.37351562 2.92523438 10.74703125 2.88671875 10.1015625 C2.82097656 9.28429687 2.75523437 8.46703125 2.6875 7.625 C2.62949219 6.81289063 2.57148438 6.00078125 2.51171875 5.1640625 C2.17009472 2.62078662 2.17009472 2.62078662 -1 1 C-0.67 0.67 -0.34 0.34 0 0 Z " fill="#835223" transform="translate(231,381)"/>
<path d="M0 0 C0.99 0 1.98 0 3 0 C3 2.64 3 5.28 3 8 C1.68 6.35 0.36 4.7 -1 3 C-4.24208567 3.35049575 -5.61527704 3.56221181 -7.8125 6.0625 C-8.204375 6.701875 -8.59625 7.34125 -9 8 C-8.74438677 5.6568787 -8.40729228 3.32156597 -8 1 C-5.2761601 -0.36191995 -3.01903173 -0.06161289 0 0 Z " fill="#76410D" transform="translate(201,381)"/>
<path d="M0 0 C3.375 0.25 3.375 0.25 7 1 C7.66 2.32 8.32 3.64 9 5 C5.7 5 2.4 5 -1 5 C-0.67 3.35 -0.34 1.7 0 0 Z " fill="#86582A" transform="translate(350,382)"/>
<path d="M0 0 C0.33 0.66 0.66 1.32 1 2 C1.99 1.34 2.98 0.68 4 0 C5.32 0 6.64 0 8 0 C8 0.66 8 1.32 8 2 C6.7934375 2.556875 6.7934375 2.556875 5.5625 3.125 C2.86762813 4.69222824 2.86762813 4.69222824 2.4453125 6.97265625 C2.21238262 8.97373565 2.09895862 10.98784139 2 13 C1.34 13 0.68 13 0 13 C0 8.71 0 4.42 0 0 Z " fill="#75400D" transform="translate(300,381)"/>
<path d="M0 0 C0.33 0 0.66 0 1 0 C1.21203451 5.83094895 0.96947414 11.44413776 -1 17 C-1.66 17.33 -2.32 17.66 -3 18 C-2.88566637 15.74943278 -2.75813564 13.49953326 -2.625 11.25 C-2.55539063 9.99703125 -2.48578125 8.7440625 -2.4140625 7.453125 C-2.04676696 4.39001879 -1.60288714 2.58025734 0 0 Z " fill="#73391B" transform="translate(195,174)"/>
<path d="M0 0 C-1.15527311 3.46581934 -1.63086226 3.67870505 -4.75 5.25 C-7.61421306 6.60998606 -8.76793849 7.01933846 -12 6.75 C-12.66 6.5025 -13.32 6.255 -14 6 C-9.90047869 2.27316245 -5.67194077 0 0 0 Z " fill="#875234" transform="translate(212,158)"/>
<path d="M0 0 C0.66 0 1.32 0 2 0 C2.90375653 6.32629569 2.90375653 11.67370431 2 18 C1.34 18 0.68 18 0 18 C0 12.06 0 6.12 0 0 Z " fill="#703904" transform="translate(333,376)"/>
<path d="M0 0 C4.67692308 1.47692308 4.67692308 1.47692308 6.3125 4.125 C6.539375 4.74375 6.76625 5.3625 7 6 C-0.75 6.125 -0.75 6.125 -3 5 C-1.125 1.125 -1.125 1.125 0 0 Z " fill="#845425" transform="translate(313,381)"/>
<path d="M0 0 C0 1.32 0 2.64 0 4 C-1.4370809 4.05422947 -2.87475462 4.09289723 -4.3125 4.125 C-5.11300781 4.14820312 -5.91351563 4.17140625 -6.73828125 4.1953125 C-9 4 -9 4 -12 2 C-8.09971775 -0.60018816 -4.52565431 -0.15085514 0 0 Z " fill="#9B6B52" transform="translate(223,121)"/>
<path d="M0 0 C0.66 0.33 1.32 0.66 2 1 C-2.62 5.62 -7.24 10.24 -12 15 C-12.66 14.67 -13.32 14.34 -14 14 C-12.71520959 12.49410612 -11.42195918 10.99542625 -10.125 9.5 C-9.40570313 8.6646875 -8.68640625 7.829375 -7.9453125 6.96875 C-7.30335938 6.3190625 -6.66140625 5.669375 -6 5 C-5.34 5 -4.68 5 -4 5 C-4 4.34 -4 3.68 -4 3 C-2 1.375 -2 1.375 0 0 Z " fill="#E7DCD4" transform="translate(314,214)"/>
<path d="M0 0 C6.51442472 0.04169232 12.63616674 0.90975651 19.00390625 2.265625 C14.98684088 3.31942914 11.14898875 3.93134415 7.00390625 4.265625 C6.34390625 3.605625 5.68390625 2.945625 5.00390625 2.265625 C2.79317648 2.02308687 2.79317648 2.02308687 0.37890625 2.140625 C-0.84699219 2.16769531 -0.84699219 2.16769531 -2.09765625 2.1953125 C-3.03738281 2.23011719 -3.03738281 2.23011719 -3.99609375 2.265625 C-1.99609375 0.265625 -1.99609375 0.265625 0 0 Z " fill="#9F7760" transform="translate(154.99609375,206.734375)"/>
<path d="M0 0 C0.99 0.33 1.98 0.66 3 1 C2.814375 2.0725 2.62875 3.145 2.4375 4.25 C2.0695432 7.40391546 1.95534657 9.09818492 3 12 C0 11 0 11 -2 8 C-1.43396226 1.43396226 -1.43396226 1.43396226 0 0 Z " fill="#845425" transform="translate(365,382)"/>
<path d="M0 0 C5.45454545 -0.36363636 5.45454545 -0.36363636 7.875 1.25 C9 3 9 3 9 7 C5.7 7 2.4 7 -1 7 C-1 6.67 -1 6.34 -1 6 C1.64 6 4.28 6 7 6 C5.33045181 2.77595022 5.33045181 2.77595022 2.375 2.3125 C1.59125 2.209375 0.8075 2.10625 0 2 C0 1.34 0 0.68 0 0 Z " fill="#77420F" transform="translate(352,381)"/>
<path d="M0 0 C0.66 1.32 1.32 2.64 2 4 C1.34 4 0.68 4 0 4 C-0.268125 4.61875 -0.53625 5.2375 -0.8125 5.875 C-2 8 -2 8 -5 10 C-5 9.34 -5 8.68 -5 8 C-5.66 7.67 -6.32 7.34 -7 7 C-4.69 4.69 -2.38 2.38 0 0 Z " fill="#916246" transform="translate(296,228)"/>
<path d="M0 0 C0.79664063 0.55300781 0.79664063 0.55300781 1.609375 1.1171875 C0.1776134 1.81655952 -1.26129532 2.50131468 -2.703125 3.1796875 C-3.50363281 3.56253906 -4.30414063 3.94539062 -5.12890625 4.33984375 C-7.390625 5.1171875 -7.390625 5.1171875 -10.390625 4.1171875 C-11.72169122 3.77491333 -13.05462579 3.43967007 -14.390625 3.1171875 C-12.48083867 2.3905078 -10.56243985 1.68643162 -8.640625 0.9921875 C-7.57328125 0.59773437 -6.5059375 0.20328125 -5.40625 -0.203125 C-2.390625 -0.8828125 -2.390625 -0.8828125 0 0 Z " fill="#906248" transform="translate(257.390625,214.8828125)"/>
<path d="M0 0 C-1 2 -1 2 -3.10546875 3.1171875 C-6.62861239 4.19172254 -9.63502193 4.19373791 -13.3125 4.125 C-14.56675781 4.10695312 -15.82101563 4.08890625 -17.11328125 4.0703125 C-18.06589844 4.04710937 -19.01851562 4.02390625 -20 4 C-20 3.67 -20 3.34 -20 3 C-19.21753906 2.95101562 -18.43507812 2.90203125 -17.62890625 2.8515625 C-16.61699219 2.77679688 -15.60507813 2.70203125 -14.5625 2.625 C-13.55316406 2.55539063 -12.54382813 2.48578125 -11.50390625 2.4140625 C-10.26447266 2.20910156 -10.26447266 2.20910156 -9 2 C-8.67 1.34 -8.34 0.68 -8 0 C-4.71023192 -1.09658936 -3.28696233 -0.79953138 0 0 Z " fill="#9A6F57" transform="translate(178,223)"/>
<path d="M0 0 C2.49505962 2.49505962 2.35948376 3.67328888 2.625 7.125 C2.69976562 8.03507813 2.77453125 8.94515625 2.8515625 9.8828125 C2.92503906 10.93082031 2.92503906 10.93082031 3 12 C2.01 12.33 1.02 12.66 0 13 C-1.28571429 4.57142857 -1.28571429 4.57142857 0 0 Z " fill="#906248" transform="translate(272,148)"/>
<path d="M0 0 C4.29 0.33 8.58 0.66 13 1 C13.33 1.99 13.66 2.98 14 4 C12.22825181 3.91276622 10.45752623 3.80458345 8.6875 3.6875 C7.70136719 3.62949219 6.71523437 3.57148438 5.69921875 3.51171875 C3 3 3 3 0 0 Z " fill="#7F421F" transform="translate(183,250)"/>
<path d="M0 0 C1.14926266 0.95421808 2.29430541 1.91352045 3.4375 2.875 C4.07558594 3.40867187 4.71367187 3.94234375 5.37109375 4.4921875 C7 6 7 6 8 8 C6.68 8.33 5.36 8.66 4 9 C-0.00390625 4.60546875 -0.00390625 4.60546875 -1 3 C-0.67 2.01 -0.34 1.02 0 0 Z " fill="#875B40" transform="translate(250,116)"/>
<path d="M0 0 C2.97 0 5.94 0 9 0 C9 0.66 9 1.32 9 2 C6 4 6 4 3.3125 3.625 C2.549375 3.41875 1.78625 3.2125 1 3 C0.67 2.01 0.34 1.02 0 0 Z " fill="#E0D2C3" transform="translate(351,388)"/>
<path d="M0 0 C0.99 0.33 1.98 0.66 3 1 C2.67 4.96 2.34 8.92 2 13 C1.34 13 0.68 13 0 13 C0 8.71 0 4.42 0 0 Z " fill="#733D08" transform="translate(219,381)"/>
<path d="M0 0 C-1.38877354 3.35620271 -2.91677965 5.07298728 -6 7 C-6.66 7 -7.32 7 -8 7 C-8.33 6.01 -8.66 5.02 -9 4 C-3.375 0 -3.375 0 0 0 Z " fill="#8A5639" transform="translate(291,236)"/>
<path d="M0 0 C1.45823212 -0.0270043 2.91660675 -0.04639787 4.375 -0.0625 C5.18710937 -0.07410156 5.99921875 -0.08570313 6.8359375 -0.09765625 C9 0 9 0 11 1 C11.625 3.5625 11.625 3.5625 12 6 C10.55903414 5.57405412 9.12231288 5.13373367 7.6875 4.6875 C6.88699219 4.44386719 6.08648437 4.20023438 5.26171875 3.94921875 C2.90035427 2.95817977 1.66120007 1.91925057 0 0 Z " fill="#8F5B3E" transform="translate(317,209)"/>
<path d="M0 0 C4.3177458 0.50797009 8.03302114 1.19682779 12 3 C11.34 3.66 10.68 4.32 10 5 C6.26352155 4.83754442 4.47461258 4.41216356 1.625 1.9375 C1.08875 1.298125 0.5525 0.65875 0 0 Z " fill="#804929" transform="translate(220,101)"/>
<path d="M0 0 C3.3 0 6.6 0 10 0 C9.01 0.33 8.02 0.66 7 1 C6.67 1.99 6.34 2.98 6 4 C4.35 3.67 2.7 3.34 1 3 C0.67 2.01 0.34 1.02 0 0 Z " fill="#D9C8B6" transform="translate(312,388)"/>
<path d="M0 0 C3.25543229 0.34879632 4.01873107 1.02133261 6.25 3.5625 C6.8275 4.366875 7.405 5.17125 8 6 C7.01 6.66 6.02 7.32 5 8 C0 2.25 0 2.25 0 0 Z " fill="#794629" transform="translate(255,124)"/>
<path d="M0 0 C0.33 0.66 0.66 1.32 1 2 C-3.625 6.875 -3.625 6.875 -7 8 C-6.4376049 4.73810844 -5.5859495 3.08865152 -3 1 C-2.01 0.67 -1.02 0.34 0 0 Z " fill="#7B4627" transform="translate(147,116)"/>
<path d="M0 0 C-1.65519326 3.31038651 -4.65442221 3.78867011 -8 5 C-8.99 4.67 -9.98 4.34 -11 4 C-7.65667474 -0.27945633 -5.29105716 -0.4070044 0 0 Z " fill="#7F4A2A" transform="translate(168,105)"/>
<path d="M0 0 C0.33 0.66 0.66 1.32 1 2 C1.66 2 2.32 2 3 2 C2.67 5.63 2.34 9.26 2 13 C1.34 13 0.68 13 0 13 C0 8.71 0 4.42 0 0 Z " fill="#703904" transform="translate(125,381)"/>
<path d="M0 0 C4.97306516 0.49730652 8.63799813 1.55302334 13 4 C13 4.33 13 4.66 13 5 C11.58249437 4.88490339 10.16598831 4.75746342 8.75 4.625 C7.96109375 4.55539063 7.1721875 4.48578125 6.359375 4.4140625 C3.914123 3.98492887 2.15163097 3.21399362 0 2 C0 1.34 0 0.68 0 0 Z " fill="#7B4122" transform="translate(169,245)"/>
<path d="M0 0 C3.35620271 1.38877354 5.07298728 2.91677965 7 6 C7 6.66 7 7.32 7 8 C4.24542282 7.62005832 3.17979426 7.1926367 1.25 5.125 C0 3 0 3 0 0 Z " fill="#804625" transform="translate(137,221)"/>
<path d="M0 0 C0 0.99 0 1.98 0 3 C-3.29696105 4.09898702 -4.40494903 3.87124444 -7.6875 3.0625 C-8.89986328 2.77052734 -8.89986328 2.77052734 -10.13671875 2.47265625 C-11.05904297 2.23869141 -11.05904297 2.23869141 -12 2 C-7.26221957 -0.36889021 -5.36029082 -1.04875255 0 0 Z " fill="#8E5F44" transform="translate(222,100)"/>
<path d="M0 0 C0.33 0 0.66 0 1 0 C1 4.29 1 8.58 1 13 C0.34 13 -0.32 13 -1 13 C-2.53690745 10.58959839 -3.09752136 9.49917715 -2.5390625 6.640625 C-2.23742187 5.85171875 -1.93578125 5.0628125 -1.625 4.25 C-1.32851562 3.45078125 -1.03203125 2.6515625 -0.7265625 1.828125 C-0.48679688 1.22484375 -0.24703125 0.6215625 0 0 Z " fill="#86572A" transform="translate(204,381)"/>
<path d="M0 0 C0.89109922 3.07251011 1.16339724 5.86647393 1.1875 9.0625 C1.20167969 9.91972656 1.21585938 10.77695313 1.23046875 11.66015625 C1 14 1 14 -1 17 C-2.08318662 12.91721966 -1.83473185 9.82121165 -1.0625 5.6875 C-0.86785156 4.61886719 -0.67320312 3.55023438 -0.47265625 2.44921875 C-0.31667969 1.64097656 -0.16070312 0.83273438 0 0 Z " fill="#85573F" transform="translate(192,181)"/>
<path d="M0 0 C0.66 0 1.32 0 2 0 C4.1519437 3.22791555 4.20086443 4.28400809 4 8 C3.01 8 2.02 8 1 8 C0.34 5.69 -0.32 3.38 -1 1 C-0.67 0.67 -0.34 0.34 0 0 Z " fill="#835224" transform="translate(277,377)"/>
<path d="M0 0 C0.6875 1.625 0.6875 1.625 1 4 C-0.4375 7.25 -0.4375 7.25 -2 10 C-3.125 8.3125 -3.125 8.3125 -4 6 C-3.25 3.3125 -3.25 3.3125 -2 1 C-1.34 0.67 -0.68 0.34 0 0 Z " fill="#88573C" transform="translate(282,206)"/>
<path d="M0 0 C1.98 0.99 1.98 0.99 4 2 C4 4.31 4 6.62 4 9 C3.01 8.34 2.02 7.68 1 7 C0.3125 3.375 0.3125 3.375 0 0 Z " fill="#7C472A" transform="translate(268,144)"/>
<path d="M0 0 C2.97 0 5.94 0 9 0 C8.67 0.99 8.34 1.98 8 3 C5.36 3.33 2.72 3.66 0 4 C0 2.66666667 0 1.33333333 0 0 Z " fill="#8C5C41" transform="translate(181,98)"/>
<path d="M0 0 C0.33 0 0.66 0 1 0 C1 2.97 1 5.94 1 9 C0.01 9.33 -0.98 9.66 -2 10 C-2.12375 9.030625 -2.2475 8.06125 -2.375 7.0625 C-2.58125 6.051875 -2.7875 5.04125 -3 4 C-3.66 3.67 -4.32 3.34 -5 3 C-4.01 3 -3.02 3 -2 3 C-2 3.99 -2 4.98 -2 6 C-1.34 6 -0.68 6 0 6 C0 4.02 0 2.04 0 0 Z " fill="#A37B67" transform="translate(274,230)"/>
<path d="M0 0 C1.10868317 3.32604951 1.54177532 6.53058454 2 10 C0.68 10 -0.64 10 -2 10 C-1.85950482 8.52031676 -1.71245174 7.04125484 -1.5625 5.5625 C-1.48128906 4.73878906 -1.40007812 3.91507813 -1.31640625 3.06640625 C-1 1 -1 1 0 0 Z " fill="#7C3C19" transform="translate(276,218)"/>
<path d="M0 0 C0.66 0.33 1.32 0.66 2 1 C0.19587357 4.26460973 -0.83394693 5.88929795 -4 8 C-4 7.34 -4 6.68 -4 6 C-4.66 5.67 -5.32 5.34 -6 5 C-5.34 5 -4.68 5 -4 5 C-4 4.34 -4 3.68 -4 3 C-2 1.375 -2 1.375 0 0 Z " fill="#8E5E42" transform="translate(366,198)"/>
<path d="M0 0 C0.66 0 1.32 0 2 0 C2.36923077 6.52307692 2.36923077 6.52307692 0.5 8.9375 C0.005 9.288125 -0.49 9.63875 -1 10 C-1.125 2.25 -1.125 2.25 0 0 Z " fill="#773D19" transform="translate(121,160)"/>
<path d="M0 0 C2.25 0.25 2.25 0.25 4 1 C2.35 2.98 0.7 4.96 -1 7 C-1.33 6.34 -1.66 5.68 -2 5 C-2.66 4.67 -3.32 4.34 -4 4 C-2.25 1.9375 -2.25 1.9375 0 0 Z " fill="#86573B" transform="translate(210,124)"/>
<path d="M0 0 C-0.33 0.66 -0.66 1.32 -1 2 C-3.06640625 2.6328125 -3.06640625 2.6328125 -5.5625 3.125 C-6.80193359 3.37636719 -6.80193359 3.37636719 -8.06640625 3.6328125 C-8.70449219 3.75398437 -9.34257812 3.87515625 -10 4 C-10 3.34 -10 2.68 -10 2 C-6.5980513 -0.09350689 -3.94727588 -0.17942163 0 0 Z " fill="#824727" transform="translate(241,247)"/>
<path d="M0 0 C0.66 1.32 1.32 2.64 2 4 C2.66 3.34 3.32 2.68 4 2 C4 3.32 4 4.64 4 6 C3.34 6 2.68 6 2 6 C2 7.98 2 9.96 2 12 C0.4375 10.5 0.4375 10.5 -1 8 C-0.96823234 5.22562457 -0.50364148 2.74713533 0 0 Z " fill="#A17D69" transform="translate(189,193)"/>
<path d="M0 0 C0.66 0 1.32 0 2 0 C1.5206753 4.31392226 0.2542015 6.16569547 -3 9 C-2.69181644 7.68647977 -2.37832335 6.37420428 -2.0625 5.0625 C-1.88847656 4.33160156 -1.71445313 3.60070312 -1.53515625 2.84765625 C-1 1 -1 1 0 0 Z " fill="#79482B" transform="translate(226,140)"/>
<path d="M0 0 C-0.639375 0.309375 -1.27875 0.61875 -1.9375 0.9375 C-3.93610821 1.8345163 -3.93610821 1.8345163 -5 3 C-7.33297433 3.04092937 -9.66705225 3.04241723 -12 3 C-12 2.34 -12 1.68 -12 1 C-7.9472484 0.01751476 -4.16138263 -0.08159574 0 0 Z " fill="#844C2A" transform="translate(186,99)"/>
<path d="M0 0 C0.66 0.33 1.32 0.66 2 1 C2 2.98 2 4.96 2 7 C1.34 7 0.68 7 0 7 C0 6.01 0 5.02 0 4 C-1.32 4 -2.64 4 -4 4 C-4 3.34 -4 2.68 -4 2 C-2.125 0.9375 -2.125 0.9375 0 0 Z " fill="#783B13" transform="translate(272,229)"/>
<path d="M0 0 C0.99 0.33 1.98 0.66 3 1 C3.33 2.65 3.66 4.3 4 6 C3.01 6.66 2.02 7.32 1 8 C0.34 5.69 -0.32 3.38 -1 1 C-0.67 0.67 -0.34 0.34 0 0 Z " fill="#885940" transform="translate(126,202)"/>
<path d="M0 0 C2.4375 0.75 2.4375 0.75 5 2 C5.8125 4.125 5.8125 4.125 6 6 C3.11562221 4.70700306 1.12780579 3.34058637 -1 1 C-0.67 0.67 -0.34 0.34 0 0 Z " fill="#774325" transform="translate(223,122)"/>
<path d="M0 0 C0.33 0 0.66 0 1 0 C1 1.65 1 3.3 1 5 C1.66 5 2.32 5 3 5 C3 5.66 3 6.32 3 7 C1.68 7 0.36 7 -1 7 C-1.66 7.66 -2.32 8.32 -3 9 C-3.66 8.34 -4.32 7.68 -5 7 C-4.360625 6.5875 -3.72125 6.175 -3.0625 5.75 C-0.79009069 3.82189513 -0.39803561 2.88575819 0 0 Z " fill="#885537" transform="translate(273,223)"/>
<path d="M0 0 C1.65 1.65 3.3 3.3 5 5 C4.34 6.32 3.68 7.64 3 9 C1.35173889 6.03312999 0.55728913 3.34373475 0 0 Z " fill="#84563A" transform="translate(133,214)"/>
<path d="M0 0 C3.3 0.33 6.6 0.66 10 1 C9.67 1.66 9.34 2.32 9 3 C2.25 2.25 2.25 2.25 0 0 Z " fill="#7F4024" transform="translate(164,209)"/>
<path d="M0 0 C-0.33 1.65 -0.66 3.3 -1 5 C-1.66 4.34 -2.32 3.68 -3 3 C-4.32 3.99 -5.64 4.98 -7 6 C-4.84615385 0 -4.84615385 0 0 0 Z " fill="#E7DBD2" transform="translate(290,204)"/>
<path d="M0 0 C0.99 0.33 1.98 0.66 3 1 C1.1875 3 1.1875 3 -1 5 C-1.99 5 -2.98 5 -4 5 C-3.67 4.01 -3.34 3.02 -3 2 C-2.01 2 -1.02 2 0 2 C0 1.34 0 0.68 0 0 Z " fill="#87592C" transform="translate(144,394)"/>
<path d="M0 0 C-0.639375 0.103125 -1.27875 0.20625 -1.9375 0.3125 C-2.618125 0.539375 -3.29875 0.76625 -4 1 C-4.33 1.99 -4.66 2.98 -5 4 C-5.33 3.34 -5.66 2.68 -6 2 C-7.65 2 -9.3 2 -11 2 C-11 1.67 -11 1.34 -11 1 C-3.57142857 -1.42857143 -3.57142857 -1.42857143 0 0 Z " fill="#A9836B" transform="translate(235,248)"/>
<path d="M0 0 C0.99 0.66 1.98 1.32 3 2 C2.67 2.66 2.34 3.32 2 4 C3.32 4.33 4.64 4.66 6 5 C5.01 5.495 5.01 5.495 4 6 C1.64018187 5.06421005 -0.69631264 4.06652192 -3 3 C-2.01 2.67 -1.02 2.34 0 2 C0 1.34 0 0.68 0 0 Z " fill="#956F58" transform="translate(167,243)"/>
<path d="M0 0 C0.33 0 0.66 0 1 0 C1.36923077 5.41538462 1.36923077 5.41538462 -0.5 8.375 C-0.995 8.91125 -1.49 9.4475 -2 10 C-2 9.34 -2 8.68 -2 8 C-2.66 7.67 -3.32 7.34 -4 7 C-3.525625 6.5875 -3.05125 6.175 -2.5625 5.75 C-0.83733482 3.817815 -0.43415125 2.51807725 0 0 Z " fill="#996C55" transform="translate(292,202)"/>
<path d="M0 0 C0.66 0 1.32 0 2 0 C1.50168276 3.68754757 0.89932357 5.60490662 -2 8 C-1.125 1.125 -1.125 1.125 0 0 Z " fill="#7C472B" transform="translate(268,200)"/>
<path d="M0 0 C2.31 0 4.62 0 7 0 C7 0.99 7 1.98 7 3 C4.625 3.1875 4.625 3.1875 2 3 C1.34 2.01 0.68 1.02 0 0 Z " fill="#825122" transform="translate(285,391)"/>
<path d="M0 0 C1.65 0.33 3.3 0.66 5 1 C5 1.66 5 2.32 5 3 C2.69 3 0.38 3 -2 3 C-1.34 2.01 -0.68 1.02 0 0 Z " fill="#F7F1E9" transform="translate(353,383)"/>
<path d="M0 0 C2.4375 0.375 2.4375 0.375 5 1 C5.33 1.66 5.66 2.32 6 3 C3.69 3 1.38 3 -1 3 C-0.67 2.01 -0.34 1.02 0 0 Z " fill="#F6EFE8" transform="translate(314,383)"/>
<path d="M0 0 C2.875 -0.1875 2.875 -0.1875 6 0 C6.66 0.99 7.32 1.98 8 3 C5.16032769 3 2.76264289 2.59732819 0 2 C0 1.34 0 0.68 0 0 Z " fill="#76410E" transform="translate(367,381)"/>
<path d="M0 0 C0.66 0.99 1.32 1.98 2 3 C-1 5 -1 5 -4 5 C-2.25 1.125 -2.25 1.125 0 0 Z " fill="#804B2B" transform="translate(267,231)"/>
<path d="M0 0 C2.64 0 5.28 0 8 0 C4.81237635 2.12508244 2.73487777 2.5020163 -1 3 C-0.67 2.01 -0.34 1.02 0 0 Z " fill="#834324" transform="translate(315,210)"/>
<path d="M0 0 C0.33 0.99 0.66 1.98 1 3 C0.01 3.99 -0.98 4.98 -2 6 C-2.99 5.67 -3.98 5.34 -5 5 C-3.35 3.35 -1.7 1.7 0 0 Z " fill="#834F31" transform="translate(371,195)"/>
</svg>
